<svg width="111" height="73" viewBox="0 0 111 73" fill="none" xmlns="http://www.w3.org/2000/svg">
<g clip-path="url(#clip0)">
<path d="M45.2277 9.69262L52.4439 37.1728L59.6601 9.69262C59.8332 9.06686 59.9264 8.1615 59.9264 7.48249C59.9264 3.35514 56.5713 0 52.4439 0C48.3166 0 44.9614 3.35514 44.9614 7.48249C44.9614 8.1615 45.0546 9.06686 45.2277 9.69262Z" fill="#F2F2F2"/>
<path d="M30.8085 17.4282L50.8062 37.6256L43.3104 10.212C43.1507 9.58621 42.7645 8.74742 42.4317 8.1616C40.368 4.58013 35.788 3.35524 32.2065 5.41891C28.625 7.48259 27.4002 12.0626 29.4638 15.6441C29.8233 16.2299 30.3426 16.9622 30.8085 17.4282Z" fill="#F2F2F2"/>
<path d="M22.1944 31.3279L49.608 38.8237L29.4106 18.826C28.9579 18.36 28.2123 17.8274 27.6265 17.4946C24.045 15.4309 19.4783 16.6558 17.4013 20.2373C15.3377 23.8188 16.5626 28.3855 20.144 30.4625C20.7432 30.782 21.5686 31.1548 22.1944 31.3279Z" fill="#F2F2F2"/>
<path d="M21.6885 47.6643L49.1686 40.4481L21.6885 33.2319C21.0627 33.0588 20.1574 32.9656 19.4783 32.9656C15.351 32.9656 11.9958 36.3207 11.9958 40.4481C11.9958 44.5754 15.351 47.9306 19.4783 47.9306C20.1574 47.9306 21.0627 47.8374 21.6885 47.6643Z" fill="#F2F2F2"/>
<path d="M83.1994 47.6643L55.7192 40.4481L83.1994 33.2319C83.8252 33.0588 84.7305 32.9656 85.4096 32.9656C89.5369 32.9656 92.8921 36.3207 92.8921 40.4481C92.8921 44.5754 89.5369 47.9306 85.4096 47.9306C84.7305 47.9306 83.8252 47.8374 83.1994 47.6643Z" fill="#F2F2F2"/>
<path d="M82.68 31.3279L55.2664 38.8237L75.4637 18.826C75.9164 18.36 76.662 17.8274 77.2478 17.4946C80.8293 15.4309 85.396 16.6558 87.473 20.2373C89.5367 23.8188 88.3118 28.3855 84.7303 30.4625C84.1445 30.782 83.3057 31.1548 82.68 31.3279Z" fill="#F2F2F2"/>
<path d="M74.0658 17.4282L54.0681 37.6256L61.5639 10.212C61.7237 9.58621 62.1098 8.74742 62.4426 8.1616C64.5063 4.58013 69.0863 3.35524 72.6678 5.41891C76.2493 7.48259 77.4742 12.0626 75.4105 15.6441C75.0644 16.2299 74.5318 16.9622 74.0658 17.4282Z" fill="#F2F2F2"/>
<path d="M108.296 60.1927C108.523 60.1927 108.643 60.0729 108.643 59.8998C108.643 59.7001 108.509 59.6069 108.296 59.6069H107.844V60.1927H108.296ZM107.298 59.1276H108.35C108.869 59.1276 109.188 59.4205 109.188 59.8332C109.188 60.1661 109.015 60.3924 108.709 60.4723C108.949 60.5256 109.095 60.7253 109.095 61.0315C109.095 61.2845 109.135 61.4309 109.215 61.5374V61.604H108.643C108.589 61.4842 108.549 61.3644 108.549 61.0448C108.549 60.7652 108.416 60.6587 108.137 60.6587H107.844V61.5907H107.298V59.1276ZM108.15 58.635C107.178 58.6217 106.419 59.4205 106.432 60.3658C106.419 61.3111 107.191 62.1233 108.15 62.0966C109.122 62.1099 109.881 61.3111 109.868 60.3658C109.881 59.4205 109.122 58.6084 108.15 58.635ZM108.15 58.0891C109.428 58.0625 110.453 59.1276 110.427 60.3658C110.453 61.604 109.415 62.6824 108.15 62.6425C106.872 62.6691 105.847 61.604 105.873 60.3658C105.847 59.1276 106.872 58.0625 108.15 58.0891Z" fill="#F2F2F2"/>
<path d="M7.08307 66.1175L7.1097 65.8379C7.1097 64.4666 6.00463 63.6544 4.5534 63.6544C3.07554 63.6544 1.97048 64.5997 1.78408 66.1175H7.08307ZM9.1068 69.0066C8.45441 70.9505 7.02981 72.0955 4.833 72.0955C2.02373 72.0955 0 70.1383 0 67.0495C0 64.3068 1.83734 62.1233 4.56671 62.1233C5.83155 62.1233 6.87004 62.4828 7.65557 63.2284C8.4411 63.9606 8.82721 64.9459 8.82721 66.1974C8.82721 66.6234 8.78726 67.0095 8.70738 67.369H1.78408C1.79739 69.446 3.14211 70.5511 4.833 70.5511C6.31085 70.5511 7.21621 69.7789 7.60231 68.4075L9.1068 69.0066Z" fill="#F2F2F2"/>
<path d="M11.7696 68.6472C12.3154 70.0052 13.1675 70.5644 14.6188 70.5644C15.8836 70.5644 16.6825 70.0052 16.6825 69.1664C16.6825 68.2611 16.0966 67.7551 14.1661 67.4888C11.9693 67.1693 10.8775 66.264 10.8775 64.7462C10.8775 63.9739 11.1971 63.3482 11.8495 62.8689C12.5152 62.3629 13.3406 62.1233 14.3259 62.1233C16.1233 62.1233 17.1884 62.8955 17.7742 64.2402L16.4162 64.9858C16.0966 64.0139 15.351 63.5346 14.3126 63.5346C13.2607 63.5346 12.4619 64.0139 12.4619 64.7595C12.4619 65.5849 13.1542 65.9444 15.0182 66.2107C17.255 66.5169 18.3733 67.4622 18.3733 69.0599C18.3733 70.8307 16.6958 72.0822 14.5389 72.0822C12.382 72.0822 10.9042 71.0171 10.345 69.3794L11.7696 68.6472Z" fill="#F2F2F2"/>
<path d="M21.1294 63.8008H19.2388V62.323H21.1294V58.1157H22.8868V62.323H26.3218V63.8008H22.8868V69.1264C22.8868 70.0318 23.446 70.5643 24.2049 70.5643C25.0171 70.5643 25.4697 70.125 25.6428 69.0732L27.2538 69.4326C26.9875 71.1502 25.8958 72.0954 24.2715 72.0954C22.2477 72.0954 21.1427 70.9638 21.1427 69.0465V63.8008H21.1294Z" fill="#F2F2F2"/>
<path d="M35.3887 66.1175L35.4154 65.8379C35.4154 64.4666 34.3103 63.6544 32.8591 63.6544C31.3812 63.6544 30.2761 64.5997 30.0897 66.1175H35.3887ZM37.3991 69.0066C36.7468 70.9505 35.3222 72.0955 33.1253 72.0955C30.3161 72.0955 28.3057 70.1383 28.3057 67.0495C28.3057 64.3068 30.143 62.1233 32.8724 62.1233C34.1372 62.1233 35.1757 62.4828 35.9612 63.2284C36.7468 63.9606 37.1329 64.9459 37.1329 66.1974C37.1329 66.6234 37.0929 67.0095 37.013 67.369H30.0897C30.1164 69.446 31.4478 70.5511 33.1387 70.5511C34.6165 70.5511 35.5219 69.7789 35.908 68.4075L37.3991 69.0066Z" fill="#F2F2F2"/>
<path d="M40.2351 63.8008H38.3445V62.323H40.2351V58.1157H41.9925V62.323H45.4276V63.8008H41.9925V69.1264C41.9925 70.0318 42.5517 70.5643 43.3106 70.5643C44.1228 70.5643 44.5755 70.125 44.7485 69.0732L46.3595 69.4326C46.0933 71.1502 45.0015 72.0954 43.3772 72.0954C41.3535 72.0954 40.2484 70.9638 40.2484 69.0465V63.8008H40.2351Z" fill="#F2F2F2"/>
<path d="M47.8641 71.8958H49.5949V62.3363H47.8641V71.8958ZM47.7576 60.1528H49.6881V58.1157H47.7576V60.1528Z" fill="#F2F2F2"/>
<path d="M56.2119 63.6943C54.6541 63.6943 53.1896 65.0124 53.1896 67.1426C53.1896 69.2995 54.6408 70.5377 56.2119 70.5377C57.703 70.5377 59.2341 69.2862 59.2341 67.1426C59.2475 65.0257 57.7163 63.6943 56.2119 63.6943ZM55.8923 62.1232C57.3702 62.1232 58.5418 62.8688 59.1676 64.0671V58.1157H60.925V71.8957H59.2475V70.1782C58.5951 71.3232 57.3968 72.0954 55.9323 72.0954C53.2828 72.0954 51.4587 70.0983 51.4587 67.1693C51.4587 64.2002 53.2961 62.1232 55.8923 62.1232Z" fill="#F2F2F2"/>
<path d="M69.8854 66.1175L69.9121 65.8379C69.9121 64.4666 68.807 63.6544 67.3558 63.6544C65.8779 63.6544 64.7728 64.5997 64.5864 66.1175H69.8854ZM71.9092 69.0066C71.2568 70.9505 69.8322 72.0955 67.6354 72.0955C64.8261 72.0955 62.8157 70.1383 62.8157 67.0495C62.8157 64.3068 64.653 62.1233 67.3824 62.1233C68.6472 62.1233 69.6857 62.4828 70.4712 63.2284C71.2568 63.9606 71.6429 64.9459 71.6429 66.1974C71.6429 66.6234 71.6029 67.0095 71.5231 67.369H64.5998C64.6264 69.446 65.9578 70.5511 67.6487 70.5511C69.1265 70.5511 70.0319 69.7789 70.418 68.4075L71.9092 69.0066Z" fill="#F2F2F2"/>
<path d="M75.4106 62.323V63.721C75.8367 62.6958 76.7021 62.1233 77.8471 62.1233C79.4048 62.1233 80.47 63.2683 80.47 64.7328C80.47 65.119 80.43 65.4784 80.3501 65.798H78.6592C78.6992 65.5184 78.7258 65.2787 78.7258 65.0923C78.7258 64.2003 78.14 63.6544 77.1947 63.6544C76.1296 63.6544 75.4239 64.5065 75.4239 65.798V71.8958H73.6931V62.3363H75.4106V62.323Z" fill="#F2F2F2"/>
<path d="M83.9715 62.323V63.681C84.4375 62.7357 85.2896 62.1233 86.5545 62.1233C87.6995 62.1233 88.6714 62.789 88.9909 64.0139C89.4969 62.8023 90.5886 62.1233 91.8002 62.1233C93.571 62.1233 94.7026 63.2284 94.7026 65.2521V71.8958H92.9718V65.6249C92.9718 64.4399 92.2395 63.7077 91.2144 63.7077C90.1626 63.7077 89.3371 64.4799 89.3371 65.9444V71.8958H87.5796V65.7048C87.5796 64.3867 86.874 63.7077 85.8222 63.7077C84.7704 63.7077 83.9715 64.4932 83.9715 66.0509V71.9091H82.2407V62.3496H83.9715V62.323Z" fill="#F2F2F2"/>
<path d="M102.997 68.1145L102.105 67.8482C101.44 67.6485 100.841 67.542 100.335 67.542C99.1097 67.542 98.3375 68.0612 98.3375 69.0598C98.3375 69.9518 99.0298 70.5509 100.295 70.5509C101.892 70.5509 102.997 69.6988 102.997 68.3142V68.1145ZM100.095 66.1973C100.801 66.1973 101.493 66.3038 102.132 66.5035L102.997 66.7431V65.7579C102.997 64.3599 102.025 63.601 100.601 63.601C99.2295 63.601 98.2975 64.3466 98.0579 65.5848L96.4868 65.1454C96.8729 63.3081 98.3641 62.1365 100.601 62.1365C103.21 62.1365 104.675 63.5478 104.675 65.9043V71.8957H102.997V70.3779C102.518 71.403 101.24 72.0954 99.7088 72.0954C98.8168 72.0954 98.0712 71.8291 97.4454 71.3098C96.8463 70.764 96.5401 70.0583 96.5401 69.1663C96.5401 67.2091 98.0179 66.1973 100.095 66.1973Z" fill="#F2F2F2"/>
</g>
<defs>
<clipPath id="clip0">
<rect width="110.427" height="72.0955" fill="white"/>
</clipPath>
</defs>
</svg>
