<?xml version="1.0" encoding="UTF-8"?>
<svg width="180px" height="49px" viewBox="0 0 180 49" version="1.1" xmlns="http://www.w3.org/2000/svg" xmlns:xlink="http://www.w3.org/1999/xlink">
    <!-- Generator: Sketch 59 (86127) - https://sketch.com -->
    <title>ocbc-white</title>
    <desc>Created with Sketch.</desc>
    <defs>
        <polygon id="path-1" points="0 0.2205 117.956965 0.2205 117.956965 39.50835 0 39.50835"></polygon>
        <polygon id="path-3" points="0 48.4295 179.0544 48.4295 179.0544 0.35 0 0.35"></polygon>
    </defs>
    <g id="Page-1" stroke="none" stroke-width="1" fill="none" fill-rule="evenodd">
        <g id="ocbc-white">
            <g id="Group-3" transform="translate(0.000000, 0.129500)">
                <mask id="mask-2" fill="white">
                    <use xlink:href="#path-1"></use>
                </mask>
                <g id="Clip-2"></g>
                <path d="M64.746465,19.5552 C64.746465,26.0302 60.086215,30.0839 54.203065,30.0839 C47.625515,30.0839 44.418815,26.2885 44.418815,20.1124 C44.418815,13.70355 49.165165,9.65335 54.960465,9.65335 C60.561865,9.65335 64.746465,12.6546 64.746465,19.5552 L64.746465,19.5552 Z M59.551065,19.852 C59.551065,15.89455 57.822415,13.78965 54.579315,13.78965 C52.030265,13.78965 49.610715,15.62575 49.610715,19.73755 C49.610715,23.52105 51.118865,25.91085 54.489715,25.91085 C56.816515,25.91085 59.551065,24.30645 59.551065,19.852 L59.551065,19.852 Z M95.077115,15.568 C95.077115,14.315 94.162215,13.55305 92.123815,13.55305 C91.361515,13.55305 90.672365,13.5877 90.072115,13.6157 L90.072115,17.9263 C90.481615,17.95605 90.953765,17.95605 91.520765,17.95605 C93.915115,17.95605 95.077115,17.0513 95.077115,15.568 L95.077115,15.568 Z M95.363765,23.6089 C95.363765,22.09095 94.008215,21.30555 91.708015,21.30555 C91.457765,21.30555 90.453615,21.30555 90.072115,21.33355 L90.072115,25.9672 C90.481615,26.0302 91.212415,26.05505 91.961415,26.05505 C94.132465,26.05505 95.363765,25.1237 95.363765,23.6089 L95.363765,23.6089 Z M100.612015,23.54765 C100.612015,26.69625 98.129465,29.757 91.865165,29.757 C90.609015,29.757 88.251065,29.69785 85.163365,29.69785 L85.163365,10.05935 C87.116015,9.975 90.294365,9.9169 92.904665,9.9169 C97.531315,9.9169 100.269365,11.57905 100.269365,14.8701 C100.269365,16.7034 99.007965,18.3638 97.183415,19.1177 C99.354115,19.73755 100.612015,21.5971 100.612015,23.54765 L100.612015,23.54765 Z M11.985015,13.71195 L3.801665,8.24775 C5.130615,6.4351 6.761615,4.8608 8.626065,3.5945 L15.722315,10.8549 C14.257215,11.4912 12.974465,12.4789 11.985015,13.71195 L11.985015,13.71195 Z M24.111115,28.61215 C24.805515,28.2541 25.451615,27.8166 26.040315,27.3161 C26.422865,26.9913 26.782665,26.64165 27.107115,26.2556 C28.577465,24.5322 29.468915,22.29815 29.468915,19.8618 C29.468915,14.4361 25.070465,10.03975 19.646515,10.03975 C18.509715,10.03975 17.414215,10.2333 16.401665,10.58645 L9.543765,3.0128 C12.495315,1.2397 15.952265,0.2205 19.646515,0.2205 C30.494765,0.2205 39.287815,9.0139 39.287815,19.8653 C39.287815,30.7153 30.494765,39.50835 19.646515,39.50835 C14.247065,39.50835 9.361765,37.3324 5.812065,33.8142 L29.909565,33.8142 L4.646915,32.5549 L31.338265,32.3855 L3.407215,30.93055 L14.137865,30.76815 C14.137865,30.76815 19.767265,30.9358 24.111115,28.61215 L24.111115,28.61215 Z M1.814715,28.12635 C1.645665,27.75535 1.483265,27.3791 1.332415,26.9948 L7.185815,26.9948 L8.274665,28.1414 L17.033065,28.1414 L15.114015,30.17 L4.328765,30.17 C3.985765,29.05945 3.006465,28.2345 1.814715,28.12635 L1.814715,28.12635 Z M1.095465,26.34345 C0.386015,24.3152 -3.5e-05,22.13575 -3.5e-05,19.8653 C-3.5e-05,18.60215 0.116165,17.36945 0.347865,16.17455 L9.830765,19.5041 L9.822365,19.8618 C9.822365,22.19175 10.636115,24.33795 11.998315,26.0232 C11.297615,24.51365 10.810065,22.8284 10.810065,21.0252 C10.810065,20.6325 10.834915,20.2496 10.876215,19.8786 L21.022015,23.4367 L21.022015,26.34345 L1.095465,26.34345 Z M21.022015,19.7512 L13.242915,14.5523 C14.222565,13.4435 15.438815,12.5517 16.822715,11.97175 L21.022015,16.26415 L21.022015,19.7512 Z M21.022015,23.08355 L10.970715,19.24055 C11.259115,17.6841 11.910465,16.25575 12.836915,15.0458 L21.022015,20.13515 L21.022015,23.08355 Z M9.875565,18.82615 L0.540365,15.25335 C1.075515,13.02245 2.000565,10.941 3.226615,9.0699 L11.574115,14.2604 C10.652565,15.5827 10.056165,17.14405 9.875565,18.82615 L9.875565,18.82615 Z M81.926915,29.1739 C80.389015,29.66915 78.498315,29.96105 76.673415,29.96105 C68.836565,29.96105 66.726765,25.03585 66.726765,20.5779 C66.726765,14.2009 70.470365,9.8854 77.488915,9.8854 C78.972215,9.8854 80.513265,10.05935 81.832415,10.3775 L81.268915,14.49245 C80.069115,14.1708 78.718465,13.9622 77.397565,13.9622 C73.965465,13.9622 72.111165,16.2659 72.111165,19.82225 C72.111165,23.6985 73.810065,25.82125 77.647815,25.82125 C78.751715,25.82125 80.354365,25.5563 81.360265,25.1237 L81.926915,29.1739 Z M117.956965,29.1739 C116.418715,29.66915 114.522765,29.96105 112.701715,29.96105 C104.868015,29.96105 102.758215,25.03585 102.758215,20.5779 C102.758215,14.2009 106.498665,9.8854 113.522115,9.8854 C115.001915,9.8854 116.539815,10.05935 117.863865,10.3775 L117.298965,14.49245 C116.099165,14.1708 114.748515,13.9622 113.427615,13.9622 C109.995515,13.9622 108.135965,16.2659 108.135965,19.82225 C108.135965,23.6985 109.839415,25.82125 113.676115,25.82125 C114.780015,25.82125 116.382665,25.5563 117.393115,25.1237 L117.956965,29.1739 Z" id="Fill-1" fill="#FEFEFE" mask="url(#mask-2)"></path>
            </g>
            <path d="M137.301885,16.45609 C137.301885,17.83649 137.320085,19.49409 137.363135,20.98684 C137.044985,20.38239 136.710385,19.77374 136.363535,19.18399 L131.097085,10.17044 L125.573385,10.17044 L125.573385,29.65109 L130.188835,29.65109 L130.188835,22.52509 C130.188835,21.41314 130.174135,20.04254 130.142635,18.75804 C130.367685,19.19554 130.616185,19.65299 130.881485,20.11709 L136.418485,29.65109 L141.913835,29.65109 L141.913835,10.17044 L137.301885,10.17044 L137.301885,16.45609 Z" id="Fill-4" fill="#FEFEFE"></path>
            <mask id="mask-4" fill="white">
                <use xlink:href="#path-3"></use>
            </mask>
            <g id="Clip-7"></g>
            <polygon id="Fill-6" fill="#FEFEFE" mask="url(#mask-4)" points="144.7292 29.6506 149.45245 29.6506 149.45245 10.16995 144.7292 10.16995"></polygon>
            <path d="M159.075735,17.67801 C157.393635,17.00531 156.364635,16.53946 156.364635,15.58816 C156.364635,14.27391 157.673635,13.99741 158.769135,13.99741 C159.740035,13.99741 160.736135,14.16296 161.727335,14.48286 L162.431885,14.71491 L162.893885,10.34831 L162.360485,10.23876 C161.295085,10.01021 159.979085,9.87056 158.933285,9.87056 C154.372435,9.87056 151.427535,12.26386 151.427535,15.96931 C151.427535,19.79271 154.317835,20.91446 156.427635,21.73521 C158.144385,22.40301 159.115635,22.83036 159.115635,23.87441 C159.115635,25.42911 157.575985,25.65766 156.659685,25.65766 C155.370285,25.65766 154.105735,25.41091 152.904185,24.91706 L152.168485,24.61676 L151.641385,29.30851 L152.143285,29.44116 C153.427785,29.78416 154.861385,29.95006 156.527035,29.95006 C160.968185,29.95006 164.193435,27.21376 164.193435,23.44356 C164.193435,19.72656 161.236985,18.54321 159.075735,17.67801" id="Fill-8" fill="#FEFEFE" mask="url(#mask-4)"></path>
            <path d="M170.666755,14.13699 C170.863805,14.13349 171.064705,14.13349 171.273305,14.13349 C173.179405,14.10059 174.153455,14.90944 174.153455,16.53834 C174.153455,18.11264 172.977105,19.10699 171.097605,19.13184 C170.958655,19.13184 170.814455,19.12519 170.666755,19.11539 L170.666755,14.13699 Z M171.449005,10.05879 C169.450155,10.05879 167.881105,10.09484 166.512255,10.16974 L165.943855,10.20124 L165.943855,29.65039 L170.666755,29.65039 L170.666755,23.25169 C170.883755,23.26009 171.086055,23.26009 171.256855,23.26009 C175.822255,23.26009 179.009355,20.40794 179.009355,16.32134 C179.009355,12.34219 176.253455,10.05879 171.449005,10.05879 L171.449005,10.05879 Z" id="Fill-9" fill="#FEFEFE" mask="url(#mask-4)"></path>
            <path d="M127.776355,48.28012 L125.592005,39.07407 L127.814155,39.07407 L128.512055,42.87262 C128.717505,43.96497 128.909655,45.15147 129.057005,46.08107 L129.087105,46.08107 C129.236205,45.08147 129.454955,43.97792 129.687005,42.84462 L130.466105,39.07407 L132.678455,39.07407 L133.414155,42.95382 C133.619605,44.03252 133.772205,45.01567 133.908005,46.03977 L133.934605,46.03977 C134.070405,45.01567 134.277605,43.93662 134.469755,42.84462 L135.217355,39.07407 L137.336605,39.07407 L134.958705,48.28012 L132.706455,48.28012 L131.927355,44.31952 C131.750255,43.38957 131.601155,42.52962 131.488455,41.47892 L131.463605,41.47892 C131.298055,42.51457 131.148605,43.38957 130.929855,44.31952 L130.056605,48.28012 L127.776355,48.28012 Z" id="Fill-10" fill="#FEFEFE" mask="url(#mask-4)"></path>
            <path d="M138.3802,48.27935 L140.4571,48.27935 L140.4571,41.60065 L138.3802,41.60065 L138.3802,48.27935 Z M140.5264,39.7446 C140.5264,40.31825 140.08715,40.78025 139.4064,40.78025 C138.75015,40.78025 138.3123,40.31825 138.32735,39.7446 C138.3123,39.1433 138.75015,38.69075 139.4176,38.69075 C140.08715,38.69075 140.5117,39.1433 140.5264,39.7446 L140.5264,39.7446 Z" id="Fill-11" fill="#FEFEFE" mask="url(#mask-4)"></path>
            <path d="M144.48441,39.68972 L144.48441,41.60072 L145.97436,41.60072 L145.97436,43.13197 L144.48441,43.13197 L144.48441,45.54627 C144.48441,46.35337 144.67481,46.72332 145.30306,46.72332 C145.56311,46.72332 145.77031,46.69497 145.91801,46.66837 L145.93096,48.23777 C145.66076,48.34872 145.16866,48.41522 144.58031,48.41522 C143.91251,48.41522 143.35076,48.18317 143.02421,47.84332 C142.64131,47.44572 142.45056,46.80592 142.45056,45.86302 L142.45056,43.13197 L141.56261,43.13197 L141.56261,41.60072 L142.45056,41.60072 L142.45056,40.15207 L144.48441,39.68972 Z" id="Fill-12" fill="#FEFEFE" mask="url(#mask-4)"></path>
            <path d="M147.33124,38.58435 L149.40779,38.58435 L149.40779,42.3927 L149.43614,42.3927 C149.65139,42.10605 149.92474,41.8887 150.25479,41.7116 C150.55614,41.54605 150.95059,41.4498 151.33349,41.4498 C152.65929,41.4498 153.66834,42.36645 153.66834,44.373 L153.66834,48.28075 L151.59214,48.28075 L151.59214,44.6068 C151.59214,43.7318 151.29184,43.1319 150.51309,43.1319 C149.96954,43.1319 149.62654,43.4847 149.47569,43.85465 C149.42109,43.99185 149.40779,44.16755 149.40779,44.32015 L149.40779,48.28075 L147.33124,48.28075 L147.33124,38.58435 Z" id="Fill-13" fill="#FEFEFE" mask="url(#mask-4)"></path>
            <path d="M160.375565,48.28012 L160.375565,44.51027 L157.465315,39.07407 L159.843215,39.07407 L160.782965,41.28677 C161.071365,41.95632 161.263515,42.44667 161.495565,43.04832 L161.520415,43.04832 C161.725865,42.47502 161.944615,41.94302 162.218315,41.28677 L163.147915,39.07407 L165.483115,39.07407 L162.450365,44.44377 L162.450365,48.28012 L160.375565,48.28012 Z" id="Fill-14" fill="#FEFEFE" mask="url(#mask-4)"></path>
            <path d="M166.734015,44.933245 C166.734015,46.080195 167.211065,46.941895 168.099365,46.941895 C168.905065,46.941895 169.423765,46.136545 169.423765,44.933245 C169.423765,43.935745 169.042615,42.926695 168.099365,42.926695 C167.103615,42.926695 166.734015,43.950445 166.734015,44.933245 M171.569615,44.865695 C171.569615,47.309745 169.832915,48.428345 168.044765,48.428345 C166.092815,48.428345 164.589565,47.147345 164.589565,44.988195 C164.589565,42.828695 166.009865,41.450045 168.154315,41.450045 C170.202515,41.450045 171.569615,42.856695 171.569615,44.865695" id="Fill-15" fill="#FEFEFE" mask="url(#mask-4)"></path>
            <path d="M178.999765,46.13602 C178.999765,47.00752 179.027765,47.72012 179.054365,48.28047 L177.251165,48.28047 L177.154915,47.33757 L177.115365,47.33757 C176.857065,47.74812 176.227065,48.42957 175.025865,48.42957 C173.673115,48.42957 172.675965,47.58292 172.675965,45.52107 L172.675965,41.60177 L174.765465,41.60177 L174.765465,45.19487 C174.765465,46.16402 175.080465,46.74922 175.804615,46.74922 C176.377915,46.74922 176.705865,46.35302 176.840265,46.02682 C176.896615,45.90222 176.909915,45.73982 176.909915,45.57427 L176.909915,41.60177 L178.999765,41.60177 L178.999765,46.13602 Z" id="Fill-16" fill="#FEFEFE" mask="url(#mask-4)"></path>
        </g>
    </g>
</svg>