<svg width="141" height="32" viewBox="0 0 141 32" xmlns="http://www.w3.org/2000/svg"><title>Group 4</title><g fill="none" fill-rule="evenodd"><path d="M3.345 0h6.286l7.436 7.436-8.446 8.377v.042l8.446 8.404-7.436 7.45H3.345a3.174 3.174 0 0 1-3.157-3.157V3.157A3.165 3.165 0 0 1 3.345 0" fill="#E9A52F"/><path d="M17.067 24.259l-7.436 7.45H3.344a3.173 3.173 0 0 1-3.156-3.157V2.589c0 4.487 3.2 8.198 5.58 10.496.568.554 1.149 1.107 1.732 1.676l9.567 9.498M23.492 7.436L16.056 0H28.74c.623 0 1.204.18 1.688.485l-6.936 6.95M23.492 24.273l-7.436 7.436H28.74c.623 0 1.204-.18 1.688-.498l-6.936-6.938" fill="#DC3E4F"/><path d="M30.428 31.21a3.141 3.141 0 0 0 1.468-2.658V3.157c0-1.122-.58-2.105-1.468-2.672-5.123 5.123-10.231 10.247-15.355 15.37L30.428 31.21M134.126 9.319c-1.662 0-3.102.609-4.306 1.841V4.708h-2.05v18.596h2.05v-7.076c0-1.357.414-2.492 1.259-3.447.832-.956 1.855-1.427 3.047-1.427 1.177 0 2.187.471 3.032 1.427.844.955 1.26 2.105 1.26 3.447v7.076h2.035v-7.076c0-1.897-.61-3.53-1.84-4.887-1.247-1.358-2.743-2.022-4.487-2.022zm-12.532 2.105c1.634 0 2.935.678 3.919 2.035l1.676-1.205c-1.385-1.938-3.254-2.922-5.595-2.922-1.925 0-3.558.693-4.914 2.077-1.358 1.385-2.037 3.047-2.037 4.986 0 1.938.68 3.6 2.037 4.984 1.356 1.385 2.99 2.063 4.914 2.063 2.341 0 4.21-.97 5.595-2.908l-1.676-1.204c-.984 1.357-2.285 2.049-3.919 2.049-1.343 0-2.492-.499-3.448-1.467-.94-.97-1.426-2.146-1.426-3.517 0-1.358.485-2.534 1.426-3.504.956-.983 2.105-1.467 3.448-1.467zm-8.958-6.716h-2.035v4.777h-2.009v2.035h2.009v11.784h2.035V11.52h1.994V9.485h-1.994V4.708zm-15.62 10.647c.237-1.134.804-2.062 1.69-2.81a4.662 4.662 0 0 1 3.088-1.121c1.135 0 2.16.373 3.06 1.121a4.857 4.857 0 0 1 1.676 2.81h-9.514zm4.778-6.023c-1.925 0-3.559.693-4.93 2.077-1.343 1.385-2.022 3.047-2.022 4.986 0 1.938.679 3.6 2.022 4.984 1.371 1.385 3.005 2.063 4.93 2.063a6.69 6.69 0 0 0 3.586-1.011 6.745 6.745 0 0 0 2.562-2.797l-1.855-.941a5.004 5.004 0 0 1-1.787 1.966 4.74 4.74 0 0 1-2.506.72 4.675 4.675 0 0 1-3.088-1.136 4.843 4.843 0 0 1-1.69-2.796h11.687v-1.052c0-1.939-.663-3.6-2.022-4.986-1.355-1.384-2.99-2.077-4.887-2.077zM80.512 4.708h-1.953v18.596h2.036V10.316l.595 1.412.595 1.662 3.574 9.25h1.896l3.586-9.25.582-1.662.609-1.412v12.988h2.035V4.708h-1.965l-5.79 14.83-5.8-14.83z" fill="#E9A52F"/><path d="M76.4 23.165H63.952l6.286-11.118h-6.286v-3.78H76.4l-6.287 11.105H76.4v3.793zm-17.488 0h3.835V8.225h-3.835v14.94zm4.5-18.983c0 .346-.07.678-.21.983a2.674 2.674 0 0 1-.552.803c-.235.222-.5.402-.817.54a2.377 2.377 0 0 1-.997.207c-.346 0-.679-.069-.996-.207a2.709 2.709 0 0 1-.805-.54 2.992 2.992 0 0 1-.554-.803 2.6 2.6 0 0 1-.193-.983c0-.346.07-.678.193-.998.14-.304.333-.567.554-.802.222-.222.5-.415.805-.54.317-.14.65-.208.996-.208.36 0 .692.069.997.207.318.126.582.32.817.54.235.236.415.499.553.803.14.32.208.652.208.998zm-9.527 11.382c0-.569-.097-1.108-.305-1.606-.193-.5-.47-.928-.817-1.289a3.926 3.926 0 0 0-1.204-.858 3.762 3.762 0 0 0-1.467-.305c-.527 0-1.012.126-1.468.347a3.925 3.925 0 0 0-1.22.9c-.331.387-.61.816-.802 1.302-.194.484-.291.996-.291 1.509 0 .58.097 1.12.29 1.606.194.498.472.927.804 1.287.346.36.747.65 1.219.86.456.206.941.304 1.468.304a3.55 3.55 0 0 0 1.467-.305 3.913 3.913 0 0 0 2.02-2.146 4.046 4.046 0 0 0 .306-1.606zm3.822 0c0 1.177-.194 2.243-.596 3.212a7.756 7.756 0 0 1-1.62 2.492 7.408 7.408 0 0 1-2.423 1.606c-.927.388-1.924.568-2.976.568a7.591 7.591 0 0 1-2.965-.581 7.712 7.712 0 0 1-2.437-1.634 7.788 7.788 0 0 1-1.634-2.492c-.401-.957-.594-2.022-.594-3.171V2.284h3.82v6.98c.21-.264.444-.485.75-.693.29-.207.608-.374.94-.512a6.88 6.88 0 0 1 1.053-.29c.359-.07.72-.112 1.067-.112 1.052 0 2.049.208 2.976.596.928.4 1.73.94 2.423 1.648a8.128 8.128 0 0 1 1.62 2.505c.402.97.596 2.022.596 3.158z" fill="#DC3E4F"/><path d="M135.039 27.264h-2.298v.913h2.05c.276 0 .485.042.58.153.111.111.167.305.167.61v.36c0 .29-.056.498-.152.61-.11.095-.305.15-.595.15h-1.898c-.29 0-.485-.055-.595-.165-.11-.097-.153-.305-.153-.596v-.097l.499-.11v.525h2.41v-.982h-2.037c-.289 0-.497-.056-.594-.152-.11-.112-.152-.32-.152-.61v-.276c0-.305.041-.5.152-.61.097-.11.305-.153.594-.153h1.719c.29 0 .483.042.595.153.11.097.166.29.166.553v.07l-.458.125v-.471zm-7.24 2.797l1.757-3.227h.582l1.8 3.227h-.595l-.416-.79h-2.188l-.415.79h-.526zm1.176-1.205h1.731l-.873-1.662-.858 1.662zm-4.265 1.205v-3.227h3.115v.43h-2.575v.9h1.579v.43h-1.58v1.023h2.604v.444h-3.143zm-6.493 0l-1.178-3.227h.553l.873 2.562.955-2.562h.334l.912 2.562.887-2.562h.484l-1.176 3.227h-.402l-.887-2.437-.928 2.437h-.427zm-5.221-2.464c0-.291.056-.5.167-.61.096-.11.303-.153.594-.153h2.244c.29 0 .485.042.594.153.097.11.154.305.154.61v1.702c0 .291-.057.499-.154.61-.11.096-.304.152-.594.152h-2.244c-.29 0-.498-.056-.594-.166-.11-.097-.167-.305-.167-.596v-1.702zm.541 2.02h2.685v-2.353h-2.685v2.353zm-5.041.444v-3.227h.346l2.423 2.16.18.18.18.222a2.316 2.316 0 0 1-.027-.319c-.015-.124-.015-.276-.015-.47v-1.773h.5v3.227h-.306l-2.492-2.243-.055-.056a1.043 1.043 0 0 1-.263-.318c.013.096.013.208.028.318v2.299h-.5zm-3.725-2.797h-2.52v2.353h2.52v-.955h-1.301v-.415h1.841V29.3c0 .291-.056.499-.152.596-.11.11-.306.166-.596.166h-2.104c-.29 0-.485-.056-.596-.166-.11-.097-.151-.305-.151-.596v-1.702c0-.291.04-.5.15-.61.112-.11.306-.153.597-.153h2.104c.278 0 .485.042.596.153.096.11.152.29.152.568v.082l-.54.11v-.483zm-7.56 2.797v-3.227h.332l2.422 2.16.181.18.18.222a2.316 2.316 0 0 1-.027-.319c-.014-.124-.014-.276-.014-.47v-1.773h.498v3.227h-.304l-2.493-2.243-.042-.056c-.124-.11-.22-.207-.277-.318.014.096.014.208.029.318v2.299h-.485zm-1.51 0h.54v-3.227h-.54v3.227zm-4.61 0v-3.227h.54v1.316h2.548v-1.316h.54v3.227h-.54v-1.468H91.63v1.468h-.54zm-1.247-2.797H87.6v2.353h2.244v-.816l.54.11v.388c0 .291-.055.499-.152.61-.111.096-.304.152-.61.152h-1.8c-.304 0-.498-.056-.608-.166-.097-.097-.153-.305-.153-.596v-1.702c0-.305.056-.5.153-.61.11-.11.304-.153.609-.153h1.8c.305 0 .498.042.61.153.096.11.151.305.151.61v.303l-.54.098v-.734zm-4.43 0v2.797h-.54v-2.797h-1.468v-.43h3.489v.43h-1.481zm-5.276 2.797l1.771-3.227h.569l1.8 3.227h-.596l-.414-.79h-2.189l-.401.79h-.54zm1.177-1.205h1.745l-.873-1.662-.872 1.662zm-5.054-1.453l.013.207v2.45h-.456v-3.226h.443l1.579 2.106 1.453-2.106h.499v3.227h-.499v-2.174c0-.028.014-.111.014-.222.013-.11.013-.207.013-.262l-.11.22-.083.14-1.231 1.786h-.14l-1.288-1.746-.013-.027a1.21 1.21 0 0 1-.194-.373zm-4.21-.139h-2.284v.913h2.035c.291 0 .485.042.597.153.096.111.15.305.15.61v.36c0 .29-.054.498-.15.61-.112.095-.306.15-.597.15H69.92c-.304 0-.498-.055-.61-.165-.096-.097-.151-.305-.151-.596v-.097l.498-.11v.525h2.409v-.982H70.03c-.29 0-.485-.056-.596-.152-.097-.112-.151-.32-.151-.61v-.276c0-.305.054-.5.151-.61.11-.11.306-.153.596-.153h1.731c.277 0 .485.042.596.153.11.097.151.29.151.553v.07l-.457.125v-.471zm-4.18 0h-2.287v.913h2.037c.276 0 .485.042.582.153.11.111.165.305.165.61v.36c0 .29-.055.498-.152.61-.11.095-.304.15-.595.15h-1.897c-.29 0-.485-.055-.595-.165-.112-.097-.153-.305-.153-.596v-.097l.499-.11v.525h2.409v-.982h-2.036c-.29 0-.498-.056-.594-.152-.113-.112-.153-.32-.153-.61v-.276c0-.305.04-.5.153-.61.096-.11.303-.153.594-.153h1.717c.29 0 .484.042.596.153.11.097.166.29.166.553v.07l-.457.125v-.471zm-6.481 2.797v-3.227h3.115v.43H61.93v.9h1.578v.43H61.93v1.023h2.602v.444H61.39zm-4.542 0v-3.227h.347l2.407 2.16.182.18.194.222a12.11 12.11 0 0 1-.042-.319c0-.124-.014-.276-.014-.47v-1.773h.498v3.227h-.304l-2.48-2.243-.054-.056c-.125-.11-.222-.207-.278-.318.015.096.03.208.03.318.012.112.012.25.012.388v1.91h-.498zm-1.51 0h.54v-3.227h-.54v3.227zm-1.426-2.797h-2.284v.913h2.035c.29 0 .485.042.596.153.096.111.152.305.152.61v.36c0 .29-.056.498-.152.61-.111.095-.305.15-.596.15H51.78c-.304 0-.499-.055-.61-.165-.095-.097-.151-.305-.151-.596v-.097l.5-.11v.525h2.407v-.982H51.89c-.29 0-.484-.056-.594-.152-.098-.112-.152-.32-.152-.61v-.276c0-.305.054-.5.152-.61.11-.11.304-.153.594-.153h1.731c.279 0 .485.042.597.153.096.097.152.29.152.553v.07l-.458.125v-.471zm-6.618-.43v2.783h2.354v-2.783h.526V29.3c0 .291-.055.499-.152.61-.11.096-.305.152-.596.152h-1.924c-.291 0-.484-.056-.596-.166-.111-.097-.152-.305-.152-.596v-2.465h.54zm-4.639 3.227v-3.227h2.604c.249 0 .415.042.525.14.112.097.166.262.166.484v.374c0 .18-.04.305-.137.387-.084.084-.223.139-.401.166a.595.595 0 0 1 .414.194c.098.111.139.25.139.443v.402c0 .222-.07.374-.222.485-.153.096-.373.152-.678.152h-2.41zm2.742-2.187v-.334c0-.096-.027-.179-.069-.22-.056-.042-.14-.056-.263-.056h-1.869v.886h1.869c.124 0 .207-.013.249-.055.056-.042.083-.125.083-.221zm.027 1.357v-.264c0-.152-.027-.25-.083-.305-.054-.055-.138-.083-.276-.083h-1.869v1.038h1.869c.138 0 .222-.027.276-.082.056-.055.083-.153.083-.304zM137.49 30.033v-1.135c.014-.776 1.497-2.022 1.883-2.119-.651.706-1.356 1.509-1.398 1.952v1.302h-.485M139.83 25.035l-.013-.028-.221.18c-.818.692-1.525 1.4-2.064 2.174l-.111-.167-.125-.152-.29-.276h-.014a3.183 3.183 0 0 0-.29.097c-.097.027-.168.11-.237.138l.14.097.124.11.248.249c.126.139.333.416.402.623l.14-.235c.54-.817 1.522-1.606 2.603-1.883l-.029-.083c-.042-.11-.276-.803-.263-.844" fill="#515150"/></g></svg>