<svg width="76" height="24" viewBox="0 0 76 24" fill="none" xmlns="http://www.w3.org/2000/svg">
<path d="M24.09 23.0001H19.44V8.90011L13.89 23.0001H10.05L4.5 9.08011V23.0001H0V1.73011H6.18L12.03 16.1001L17.58 1.73011H24.09V23.0001Z" fill="black"/>
<path d="M31.1145 13.7601H37.0845C37.0445 13.0801 36.7745 12.4901 36.2745 11.9901C35.7945 11.4901 35.0645 11.2401 34.0845 11.2401C33.2045 11.2401 32.5045 11.5001 31.9845 12.0201C31.4645 12.5401 31.1745 13.1201 31.1145 13.7601ZM37.4145 17.6301L41.2245 18.7101C40.8445 20.0901 40.0545 21.2301 38.8545 22.1301C37.6545 23.0101 36.1544 23.4501 34.3545 23.4501C32.1945 23.4501 30.3545 22.7301 28.8345 21.2901C27.3345 19.8501 26.5845 17.9201 26.5845 15.5001C26.5845 13.1801 27.3145 11.2901 28.7745 9.83011C30.2545 8.37011 32.0045 7.64011 34.0245 7.64011C36.3445 7.64011 38.1645 8.32011 39.4845 9.68011C40.8245 11.0201 41.4944 12.8901 41.4944 15.2901C41.4944 16.0501 41.4645 16.5201 41.4045 16.7001H31.0245C31.0645 17.5201 31.4145 18.2101 32.0745 18.7701C32.7345 19.3101 33.5145 19.5801 34.4145 19.5801C35.9545 19.5801 36.9545 18.9301 37.4145 17.6301Z" fill="black"/>
<path d="M58.4923 1.28011V20.3301C58.4923 21.2301 58.5323 22.1201 58.6123 23.0001H54.2323C54.1523 22.5201 54.1123 22.0401 54.1123 21.5601C53.7523 22.0801 53.2123 22.5101 52.4923 22.8501C51.7923 23.1701 51.0023 23.3301 50.1223 23.3301C48.0023 23.3301 46.2423 22.6001 44.8423 21.1401C43.4423 19.6601 42.7423 17.7801 42.7423 15.5001C42.7423 13.2601 43.4223 11.4101 44.7823 9.95011C46.1423 8.47011 47.8723 7.73011 49.9723 7.73011C52.0123 7.73011 53.3523 8.24011 53.9923 9.26011V1.28011H58.4923ZM48.2923 12.8001C47.6523 13.4401 47.3323 14.3501 47.3323 15.5301C47.3323 16.7101 47.6523 17.6301 48.2923 18.2901C48.9523 18.9301 49.7523 19.2501 50.6923 19.2501C51.6323 19.2501 52.4223 18.9301 53.0623 18.2901C53.7223 17.6301 54.0523 16.7101 54.0523 15.5301C54.0523 14.3501 53.7223 13.4401 53.0623 12.8001C52.4223 12.1601 51.6323 11.8401 50.6923 11.8401C49.7523 11.8401 48.9523 12.1601 48.2923 12.8001Z" fill="black"/>
<path d="M66.5616 23.0001H62.0016V8.09011H66.5616V23.0001ZM62.3916 5.42011C61.8716 4.90011 61.6116 4.27011 61.6116 3.53011C61.6116 2.79011 61.8716 2.16011 62.3916 1.64011C62.9116 1.12011 63.5316 0.860107 64.2516 0.860107C64.9916 0.860107 65.6216 1.12011 66.1416 1.64011C66.6816 2.16011 66.9516 2.79011 66.9516 3.53011C66.9516 4.27011 66.6816 4.90011 66.1416 5.42011C65.6216 5.94011 64.9916 6.20011 64.2516 6.20011C63.5316 6.20011 62.9116 5.94011 62.3916 5.42011Z" fill="black"/>
<path d="M70.6763 22.3701C70.0763 21.7501 69.7763 21.0201 69.7763 20.1801C69.7763 19.3401 70.0763 18.6201 70.6763 18.0201C71.2763 17.4201 71.9963 17.1201 72.8363 17.1201C73.6763 17.1201 74.3963 17.4201 74.9963 18.0201C75.6163 18.6201 75.9263 19.3401 75.9263 20.1801C75.9263 21.0001 75.6163 21.7201 74.9963 22.3401C74.3963 22.9601 73.6763 23.2701 72.8363 23.2701C71.9963 23.2701 71.2763 22.9701 70.6763 22.3701Z" fill="black"/>
</svg>
