<svg width="29" height="29" viewBox="0 0 29 29" fill="none" xmlns="http://www.w3.org/2000/svg">
<path d="M27.6171 14.6601C27.6171 21.3942 22.7043 26.9719 16.2687 28.029V18.0951H19.151H19.5906L19.6469 17.6591L20.1542 13.7315L20.227 13.1674H19.6583H16.2687V11.1607C16.2687 10.6133 16.3507 10.2927 16.5123 10.1005C16.6575 9.92778 16.9646 9.74936 17.7131 9.74936H17.7133L19.7927 9.74836L20.2925 9.74811V9.24836V5.73593V5.2974L19.8577 5.2402C19.4751 5.18987 18.2192 5.0818 16.7644 5.0818C15.1638 5.0818 13.7642 5.57232 12.7633 6.56188C11.7609 7.55295 11.2139 8.98978 11.2139 10.7733V13.1694H8.32257H7.82257V13.6694V17.5971V18.0971H8.32257H11.2139V27.9073C5.09329 26.6005 0.5 21.1736 0.5 14.6641C0.5 7.17595 6.57048 1.10547 14.0586 1.10547C21.5467 1.10547 27.6171 7.17604 27.6171 14.6601Z" stroke="#4A8B90"/>
</svg>
