<svg width="20" height="20" viewBox="0 0 20 20" fill="none" xmlns="http://www.w3.org/2000/svg">
<path d="M4.2613 8.7093C5.7973 11.728 8.27196 14.192 11.2906 15.7386L13.6373 13.392C13.9253 13.104 14.352 13.008 14.7253 13.136C15.92 13.5306 17.2106 13.744 18.5333 13.744C19.12 13.744 19.6 14.224 19.6 14.8106V18.5333C19.6 19.12 19.12 19.6 18.5333 19.6C8.51729 19.6 0.399963 11.4826 0.399963 1.46663C0.399963 0.879963 0.879963 0.399963 1.46663 0.399963H5.19996C5.78663 0.399963 6.26663 0.879963 6.26663 1.46663C6.26663 2.79996 6.47996 4.07996 6.87463 5.27463C6.99196 5.64796 6.90663 6.06397 6.60796 6.36263L4.2613 8.7093Z" fill="white"/>
</svg>
