<svg width="29" height="29" viewBox="0 0 29 29" fill="none" xmlns="http://www.w3.org/2000/svg">
<g clip-path="url(#clip0)">
<path d="M16.6277 9.34227C16.8999 9.06911 17.2234 8.85237 17.5795 8.70448C17.9357 8.55659 18.3175 8.48047 18.7031 8.48047C19.0888 8.48047 19.4706 8.55659 19.8268 8.70448C20.1829 8.85237 20.5064 9.06911 20.7786 9.34227C21.3286 9.89036 21.6386 10.6344 21.6404 11.4108C21.6422 12.1873 21.3358 12.9327 20.7884 13.4834L16.8816 17.3902C16.6081 17.6641 16.2829 17.8811 15.925 18.0286C15.5671 18.1761 15.1835 18.2513 14.7964 18.2497C14.02 18.2542 13.2735 17.9503 12.7209 17.4048C12.4478 17.1326 12.231 16.8092 12.0831 16.453C11.9353 16.0969 11.8591 15.715 11.8591 15.3294C11.8591 14.9437 11.9353 14.5619 12.0831 14.2057C12.231 13.8496 12.4478 13.5261 12.7209 13.2539L13.4144 12.5605" stroke="#4A8B90"/>
<path d="M14.8603 16.0127L15.8956 14.9774C16.4467 14.4263 16.7563 13.6789 16.7563 12.8995C16.7563 12.1202 16.4467 11.3727 15.8956 10.8216C15.3445 10.2705 14.597 9.96094 13.8177 9.96094C13.0383 9.96094 12.2909 10.2705 11.7398 10.8216L7.833 14.7284C7.55911 15.0007 7.34175 15.3245 7.19343 15.6811C7.04511 16.0377 6.96875 16.4201 6.96875 16.8063C6.96875 17.1925 7.04511 17.5749 7.19343 17.9315C7.34175 18.2881 7.55911 18.6119 7.833 18.8842C8.38914 19.4255 9.13732 19.7241 9.91335 19.7144C10.6962 19.7151 11.4476 19.4062 12.0035 18.8549" stroke="#4A8B90"/>
</g>
<circle cx="14.1172" cy="14.6055" r="13.5" stroke="#4A8B90"/>
<defs>
<clipPath id="clip0">
<rect width="16.3333" height="16.3333" fill="white" transform="translate(5.94922 6.43896)"/>
</clipPath>
</defs>
</svg>
