<svg width="20" height="17" viewBox="0 0 20 17" fill="none" xmlns="http://www.w3.org/2000/svg">
<path d="M14.3416 6.50002L10.6916 1.03335C10.5333 0.800016 10.2666 0.68335 9.99998 0.68335C9.73331 0.68335 9.46665 0.800016 9.30831 1.04168L5.65831 6.50002H1.66665C1.20831 6.50002 0.833313 6.87502 0.833313 7.33335C0.833313 7.40835 0.841646 7.48335 0.866646 7.55835L2.98331 15.2834C3.17498 15.9834 3.81665 16.5 4.58331 16.5H15.4166C16.1833 16.5 16.825 15.9834 17.025 15.2834L19.1416 7.55835L19.1666 7.33335C19.1666 6.87502 18.7916 6.50002 18.3333 6.50002H14.3416ZM7.49998 6.50002L9.99998 2.83335L12.5 6.50002H7.49998ZM9.99998 13.1667C9.08331 13.1667 8.33331 12.4167 8.33331 11.5C8.33331 10.5833 9.08331 9.83335 9.99998 9.83335C10.9166 9.83335 11.6666 10.5833 11.6666 11.5C11.6666 12.4167 10.9166 13.1667 9.99998 13.1667Z" fill="white"/>
</svg>
