<svg width="28" height="28" viewBox="0 0 28 28" fill="none" xmlns="http://www.w3.org/2000/svg">
<circle cx="14" cy="14" r="14" fill="#F2F2F2"/>
<path d="M14 7.54566C16.1022 7.54566 16.3509 7.55379 17.1812 7.5916C17.9487 7.6266 18.3656 7.75473 18.6431 7.86254C18.9855 7.9886 19.2952 8.1899 19.5494 8.4516C19.8111 8.70579 20.0124 9.01549 20.1384 9.35785C20.2462 9.63535 20.3744 10.0522 20.4094 10.8197C20.4472 11.65 20.4553 11.8988 20.4553 14.001C20.4553 16.1032 20.4472 16.3519 20.4094 17.1822C20.3744 17.9497 20.2462 18.3666 20.1384 18.6441C20.0073 18.9835 19.8067 19.2918 19.5494 19.5491C19.2921 19.8064 18.9838 20.0071 18.6444 20.1382C18.3669 20.246 17.95 20.3741 17.1825 20.4091C16.3525 20.4469 16.1034 20.455 14.0012 20.455C11.8991 20.455 11.65 20.4469 10.82 20.4091C10.0525 20.3741 9.63563 20.246 9.35813 20.1382C9.01577 20.0121 8.70607 19.8108 8.45188 19.5491C8.19018 19.2949 7.98887 18.9852 7.86281 18.6429C7.755 18.3654 7.62688 17.9485 7.59188 17.181C7.55406 16.3507 7.54594 16.1019 7.54594 13.9997C7.54594 11.8975 7.55406 11.6488 7.59188 10.8185C7.62688 10.051 7.755 9.6341 7.86281 9.3566C7.98887 9.01424 8.19018 8.70454 8.45188 8.45035C8.70607 8.18865 9.01577 7.98735 9.35813 7.86129C9.63563 7.75348 10.0525 7.62535 10.82 7.59035C11.6503 7.55254 11.8991 7.54441 14.0012 7.54441L14 7.54566ZM14.0012 6.12598C11.8631 6.12598 11.595 6.13504 10.7553 6.17348C9.91563 6.21191 9.34375 6.34598 8.84375 6.54035C8.31831 6.73815 7.84227 7.04804 7.44875 7.44848C7.04832 7.842 6.73842 8.31804 6.54063 8.84348C6.34625 9.34348 6.21313 9.9166 6.175 10.7544C6.13688 11.5922 6.1275 11.8616 6.1275 13.9997C6.1275 16.1379 6.13656 16.406 6.175 17.2457C6.21344 18.0854 6.34625 18.656 6.54063 19.156C6.7385 19.6812 7.04839 20.157 7.44875 20.5504C7.84214 20.951 8.31821 21.261 8.84375 21.4588C9.34375 21.6535 9.91688 21.7866 10.7547 21.8247C11.5925 21.8629 11.8625 21.8722 14.0006 21.8722C16.1387 21.8722 16.4069 21.8632 17.2466 21.8247C18.0862 21.7863 18.6562 21.6535 19.1562 21.4588C19.6794 21.2567 20.1545 20.9474 20.5511 20.5508C20.9477 20.1542 21.2569 19.6791 21.4591 19.156C21.6537 18.656 21.7869 18.0829 21.825 17.245C21.8631 16.4072 21.8725 16.1372 21.8725 13.9991C21.8725 11.861 21.8634 11.5929 21.825 10.7532C21.7866 9.91348 21.6537 9.34348 21.4591 8.84348C21.2614 8.31822 20.9516 7.84237 20.5512 7.4491C20.1578 7.04844 19.6817 6.73833 19.1562 6.54035C18.6562 6.34598 18.0831 6.21285 17.2453 6.17473C16.4075 6.1366 16.1381 6.12723 14 6.12723L14.0012 6.12598Z" fill="#4A8B90"/>
<path d="M14 9.95801C13.2005 9.95801 12.4189 10.1951 11.7541 10.6393C11.0893 11.0835 10.5712 11.7148 10.2652 12.4535C9.95927 13.1922 9.87922 14.005 10.0352 14.7892C10.1912 15.5733 10.5762 16.2936 11.1415 16.859C11.7069 17.4243 12.4272 17.8094 13.2114 17.9653C13.9955 18.1213 14.8083 18.0413 15.547 17.7353C16.2857 17.4293 16.917 16.9112 17.3612 16.2464C17.8054 15.5816 18.0425 14.8 18.0425 14.0005C18.0426 13.4696 17.938 12.9439 17.7349 12.4535C17.5317 11.963 17.234 11.5173 16.8586 11.1419C16.4832 10.7665 16.0375 10.4688 15.5471 10.2656C15.0566 10.0625 14.5309 9.95797 14 9.95801ZM14 16.6255C13.4808 16.6255 12.9733 16.4716 12.5416 16.1831C12.11 15.8947 11.7735 15.4847 11.5748 15.0051C11.3762 14.5254 11.3242 13.9976 11.4255 13.4884C11.5267 12.9792 11.7768 12.5115 12.1439 12.1444C12.511 11.7772 12.9787 11.5272 13.4879 11.4259C13.9971 11.3247 14.5249 11.3766 15.0046 11.5753C15.4842 11.774 15.8942 12.1105 16.1826 12.5421C16.4711 12.9738 16.625 13.4813 16.625 14.0005C16.625 14.6967 16.3485 15.3644 15.8562 15.8567C15.3639 16.3489 14.6962 16.6255 14 16.6255Z" fill="#4A8B90"/>
<path d="M18.2025 10.7419C18.7242 10.7419 19.1472 10.319 19.1472 9.79723C19.1472 9.27549 18.7242 8.85254 18.2025 8.85254C17.6808 8.85254 17.2578 9.27549 17.2578 9.79723C17.2578 10.319 17.6808 10.7419 18.2025 10.7419Z" fill="#4A8B90"/>
</svg>
