<svg width="28" height="28" viewBox="0 0 28 28" fill="none" xmlns="http://www.w3.org/2000/svg">
<path d="M28 14C28 21.735 21.735 28 14 28C6.265 28 0 21.735 0 14C0 6.265 6.265 0 14 0C21.735 0 28 6.265 28 14ZM11.438 21.385C17.647 21.385 21.042 16.24 21.042 11.781C21.042 11.634 21.042 11.487 21.035 11.347C21.693 10.871 22.267 10.276 22.722 9.597C22.12 9.863 21.469 10.045 20.783 10.129C21.483 9.709 22.015 9.051 22.267 8.26C21.616 8.645 20.895 8.925 20.125 9.079C19.509 8.421 18.634 8.015 17.661 8.015C15.799 8.015 14.287 9.527 14.287 11.389C14.287 11.655 14.315 11.914 14.378 12.159C11.571 12.019 9.086 10.675 7.42 8.631C7.133 9.128 6.965 9.709 6.965 10.325C6.965 11.494 7.56 12.53 8.47 13.132C7.917 13.118 7.399 12.964 6.944 12.712C6.944 12.726 6.944 12.74 6.944 12.754C6.944 14.392 8.106 15.75 9.653 16.065C9.373 16.142 9.072 16.184 8.764 16.184C8.547 16.184 8.337 16.163 8.127 16.121C8.554 17.465 9.8 18.438 11.277 18.466C10.122 19.369 8.666 19.908 7.084 19.908C6.811 19.908 6.545 19.894 6.279 19.859C7.756 20.825 9.534 21.385 11.438 21.385Z" fill="#F2F2F2"/>
</svg>
