<svg width="29" height="29" viewBox="0 0 29 29" fill="none" xmlns="http://www.w3.org/2000/svg">
<path d="M13.9042 11.9945C13.9042 12.0677 13.9061 12.141 13.91 12.2142C11.5014 11.932 9.38305 10.7097 7.92476 8.92057L7.46673 8.35863L7.1042 8.98643C6.7752 9.55616 6.58219 10.223 6.58219 10.9305C6.58219 11.5762 6.74047 12.1869 7.0212 12.7238L6.56119 12.469V13.3175V13.3176V13.3176V13.3177V13.3178V13.3179V13.318V13.318V13.3181V13.3182V13.3183V13.3184V13.3185V13.3185V13.3186V13.3187V13.3188V13.3189V13.3189V13.319V13.3191V13.3192V13.3193V13.3194V13.3194V13.3195V13.3196V13.3197V13.3198V13.3198V13.3199V13.32V13.3201V13.3202V13.3203V13.3203V13.3204V13.3205V13.3206V13.3207V13.3208V13.3208V13.3209V13.321V13.3211V13.3212V13.3212V13.3213V13.3214V13.3215V13.3216V13.3217V13.3217V13.3218V13.3219V13.322V13.3221V13.3221V13.3222V13.3223V13.3224V13.3225V13.3226V13.3226V13.3227V13.3228V13.3229V13.323V13.323V13.3231V13.3232V13.3233V13.3234V13.3235V13.3235V13.3236V13.3237V13.3238V13.3239V13.3239V13.324V13.3241V13.3242V13.3243V13.3244V13.3244V13.3245V13.3246V13.3247V13.3248V13.3249V13.3249V13.325V13.3251V13.3252V13.3253V13.3253V13.3254V13.3255V13.3256V13.3257V13.3258V13.3258V13.3259V13.326V13.3261V13.3262V13.3262V13.3263V13.3264V13.3265V13.3266V13.3267V13.3267V13.3268V13.3269V13.327V13.3271V13.3271V13.3272V13.3273V13.3274V13.3275V13.3276V13.3276V13.3277V13.3278V13.3279V13.328V13.3281V13.3281V13.3282V13.3283V13.3284V13.3285V13.3285V13.3286V13.3287V13.3288V13.3289V13.329V13.329V13.3291V13.3292V13.3293V13.3294V13.3294V13.3295V13.3296V13.3297V13.3298V13.3299V13.3299V13.33V13.3301V13.3302V13.3303V13.3303V13.3304V13.3305V13.3306V13.3307V13.3308V13.3308V13.3309V13.331V13.3311V13.3312V13.3312V13.3313V13.3314V13.3315V13.3316V13.3317V13.3317V13.3318V13.3319V13.332V13.3321V13.3322V13.3322V13.3323V13.3324V13.3325V13.3326V13.3326V13.3327V13.3328V13.3329V13.333V13.3331V13.3331V13.3332V13.3333V13.3334V13.3335V13.3335V13.3336V13.3337V13.3338V13.3339V13.334V13.334V13.3341V13.3342V13.3343V13.3344V13.3344V13.3345V13.3346V13.3347V13.3348V13.3349V13.3349V13.335V13.3351V13.3352V13.3353V13.3354V13.3354V13.3355V13.3356V13.3357V13.3358V13.3358V13.3359V13.336V13.3361V13.3362V13.3363V13.3363V13.3364V13.3365V13.3366V13.3367V13.3367V13.3368V13.3369V13.337V13.3371V13.3372V13.3372V13.3373V13.3374V13.3375V13.3376V13.3376V13.3377V13.3378V13.3379V13.338V13.3381V13.3381V13.3382V13.3383V13.3384V13.3385V13.3386V13.3386V13.3387V13.3388V13.3389V13.339V13.339V13.3391V13.3392V13.3393V13.3394V13.3395V13.3395V13.3396V13.3397V13.3398V13.3399V13.3399V13.34V13.3401V13.3402V13.3403V13.3404V13.3404V13.3405V13.3406V13.3407V13.3408V13.3408V13.3409V13.341V13.3411V13.3412V13.3413V13.3413V13.3414V13.3415V13.3416V13.3417V13.3417V13.3418V13.3419V13.342V13.3421V13.3422V13.3422V13.3423V13.3424V13.3425V13.3426V13.3427V13.3427V13.3428V13.3429V13.343V13.3431V13.3431V13.3432V13.3433V13.3434V13.3435V13.3436V13.3436V13.3437V13.3438V13.3439V13.344V13.344V13.3441V13.3442V13.3443V13.3444V13.3445V13.3445V13.3446V13.3447V13.3448V13.3449V13.3449V13.345V13.3451V13.3452V13.3453V13.3454V13.3454V13.3455V13.3456V13.3457V13.3458V13.3459V13.3459V13.346V13.3461V13.3462V13.3463V13.3463V13.3464V13.3465V13.3466V13.3467V13.3468V13.3468V13.3469V13.347V13.3471V13.3472V13.3472V13.3473V13.3474V13.3475V13.3476V13.3477V13.3477V13.3478V13.3479V13.348V13.3481V13.3481V13.3482V13.3483V13.3484V13.3485V13.3486V13.3486V13.3487V13.3488V13.3489V13.349V13.349V13.3491V13.3492V13.3493V13.3494V13.3495V13.3495V13.3496V13.3497V13.3498V13.3499V13.35V13.35V13.3501V13.3502V13.3503V13.3504V13.3504V13.3505V13.3506V13.3507V13.3508V13.3509V13.3509V13.351V13.3511V13.3512V13.3513V13.3513V13.3514V13.3515V13.3516V13.3517V13.3518V13.3518V13.3519V13.352V13.3521V13.3522V13.3522V13.3523V13.3524V13.3525V13.3526V13.3527V13.3527V13.3528V13.3529V13.353V13.3531V13.3532V13.3532V13.3533V13.3534V13.3535V13.3536V13.3536V13.3537V13.3538V13.3539V13.354V13.3541V13.3541V13.3542V13.3543V13.3544V13.3545V13.3545V13.3546V13.3547V13.3548V13.3549V13.355V13.355V13.3551V13.3552V13.3553V13.3554V13.3554V13.3555V13.3556V13.3557V13.3558V13.3559V13.3559V13.356V13.3561V13.3562V13.3563V13.3563V13.3564V13.3565V13.3566V13.3567V13.3568V13.3568V13.3569V13.357V13.3571V13.3572V13.3573V13.3573V13.3574V13.3575V13.3576V13.3577V13.3577V13.3578V13.3579V13.358V13.3581V13.3582V13.3582V13.3583V13.3584V13.3585V13.3586V13.3586V13.3587V13.3588V13.3589V13.359V13.3591V13.3591V13.3592V13.3593V13.3594V13.3595C6.56119 14.4366 6.99871 15.4076 7.70552 16.1088L7.51097 16.0699L7.76766 16.8779C8.1256 18.0045 8.98416 18.904 10.081 19.3204C9.21812 19.7633 8.23926 20.0135 7.20119 20.0135C6.94532 20.0135 6.7016 20.0003 6.46141 19.9687L6.12251 20.8829C7.6794 21.9012 9.55224 22.4905 11.5552 22.4905C18.0978 22.4905 21.6592 17.0604 21.6592 12.3865V12.3804C21.6592 12.3214 21.6592 12.2598 21.6586 12.1972C22.2757 11.7156 22.8165 11.1345 23.2546 10.4808L24.2146 9.04808L22.6371 9.74512C22.5956 9.76346 22.5539 9.78136 22.5119 9.79883C22.6552 9.55473 22.7727 9.29308 22.8606 9.01724L23.2588 7.76733L22.1297 8.4351C21.5992 8.74881 21.0184 8.98742 20.4 9.13755C19.7095 8.50326 18.7888 8.12047 17.7782 8.12047C15.64 8.12047 13.9042 9.85633 13.9042 11.9945ZM27.6172 14.6055C27.6172 22.0643 21.576 28.1055 14.1172 28.1055C6.65833 28.1055 0.617188 22.0643 0.617188 14.6055C0.617188 7.14661 6.65833 1.10547 14.1172 1.10547C21.576 1.10547 27.6172 7.14661 27.6172 14.6055Z" stroke="#4A8B90"/>
</svg>
