<svg xmlns="http://www.w3.org/2000/svg" width="24" height="24" viewBox="0 0 24 24">
    <g fill="none" fill-rule="evenodd">
        <path fill="#EB2629" d="M15.733 3.955l.06.036.023.016.063.047 5.684 4.8c.186.157.294.388.294.631 0 .182-.06.358-.182.514l-.056.065-.056.052-5.684 4.8c-.247.209-.59.256-.887.123-.242-.11-.416-.326-.472-.603l-.012-.071-.004-.08v-2.3l-.065.007c-3.79.394-6.888 1.527-7.176 3.575l-.012.097-.007.097-.004.126c0 .459-.375.827-.834.827-.4 0-.738-.28-.818-.662l-.01-.065-.005-.043-.002-.059c0-.117.005-.232.015-.338.087-1.26.44-2.692 1.206-4.063 1.358-2.434 3.725-4.07 7.31-4.375l.2-.016.202-.013V4.685c0-.278.14-.534.369-.687l.059-.036.062-.031c.239-.107.512-.097.739.024zm.44 2.523v1.408c0 .22-.089.432-.247.588-.157.154-.368.24-.59.24-3.345 0-5.52 1.146-6.798 3.063l-.063.096.158-.08c.927-.455 2.023-.806 3.242-1.07l.23-.048c.734-.15 1.465-.26 2.164-.333l.374-.037c.193-.018.361-.03.5-.039l.18-.009h.015c.214 0 .42.082.574.227.12.113.204.26.243.44l.013.078.005.084v1.407l3.561-3.007-3.561-3.008z"/>
        <path fill="#313131" d="M8.456 6c.473 0 .857.384.857.857 0 .452-.35.822-.793.855l-.064.002H3.75c-.148 0-.297.15-.319.372l-.002.057V18c0 .233.137.401.284.425l.037.004h16.5c.148 0 .297-.15.319-.372L20.57 18v-4.554c0-.474.384-.857.858-.857.451 0 .822.35.854.793l.003.064V18c0 1.136-.847 2.09-1.944 2.14l-.092.003H3.75c-1.11 0-1.987-.923-2.034-2.049L1.714 18V8.143c0-1.136.847-2.09 1.944-2.14L3.75 6h4.706z"/>
    </g>
</svg>
