<svg width="76" height="24" viewBox="0 0 76 24" fill="none" xmlns="http://www.w3.org/2000/svg">
<path d="M24.09 23H19.44V8.89999L13.89 23H10.05L4.5 9.07999V23H0V1.72999H6.18L12.03 16.1L17.58 1.72999H24.09V23Z" fill="black"/>
<path d="M31.1145 13.76H37.0845C37.0445 13.08 36.7745 12.49 36.2745 11.99C35.7945 11.49 35.0645 11.24 34.0845 11.24C33.2045 11.24 32.5045 11.5 31.9845 12.02C31.4645 12.54 31.1745 13.12 31.1145 13.76ZM37.4145 17.63L41.2245 18.71C40.8445 20.09 40.0545 21.23 38.8545 22.13C37.6545 23.01 36.1544 23.45 34.3545 23.45C32.1945 23.45 30.3545 22.73 28.8345 21.29C27.3345 19.85 26.5845 17.92 26.5845 15.5C26.5845 13.18 27.3145 11.29 28.7745 9.82999C30.2545 8.36999 32.0045 7.63999 34.0245 7.63999C36.3445 7.63999 38.1645 8.31999 39.4845 9.67999C40.8245 11.02 41.4944 12.89 41.4944 15.29C41.4944 16.05 41.4645 16.52 41.4045 16.7H31.0245C31.0645 17.52 31.4145 18.21 32.0745 18.77C32.7345 19.31 33.5145 19.58 34.4145 19.58C35.9545 19.58 36.9545 18.93 37.4145 17.63Z" fill="black"/>
<path d="M58.4923 1.27999V20.33C58.4923 21.23 58.5323 22.12 58.6123 23H54.2323C54.1523 22.52 54.1123 22.04 54.1123 21.56C53.7523 22.08 53.2123 22.51 52.4923 22.85C51.7923 23.17 51.0023 23.33 50.1223 23.33C48.0023 23.33 46.2423 22.6 44.8423 21.14C43.4423 19.66 42.7423 17.78 42.7423 15.5C42.7423 13.26 43.4223 11.41 44.7823 9.94999C46.1423 8.46999 47.8723 7.72999 49.9723 7.72999C52.0123 7.72999 53.3523 8.23999 53.9923 9.25998V1.27999H58.4923ZM48.2923 12.8C47.6523 13.44 47.3323 14.35 47.3323 15.53C47.3323 16.71 47.6523 17.63 48.2923 18.29C48.9523 18.93 49.7523 19.25 50.6923 19.25C51.6323 19.25 52.4223 18.93 53.0623 18.29C53.7223 17.63 54.0523 16.71 54.0523 15.53C54.0523 14.35 53.7223 13.44 53.0623 12.8C52.4223 12.16 51.6323 11.84 50.6923 11.84C49.7523 11.84 48.9523 12.16 48.2923 12.8Z" fill="black"/>
<path d="M66.5616 23H62.0016V8.08999H66.5616V23ZM62.3916 5.41999C61.8716 4.89999 61.6116 4.26999 61.6116 3.52999C61.6116 2.78999 61.8716 2.15999 62.3916 1.63999C62.9116 1.11999 63.5316 0.859985 64.2516 0.859985C64.9916 0.859985 65.6216 1.11999 66.1416 1.63999C66.6816 2.15999 66.9516 2.78999 66.9516 3.52999C66.9516 4.26999 66.6816 4.89999 66.1416 5.41999C65.6216 5.93999 64.9916 6.19999 64.2516 6.19999C63.5316 6.19999 62.9116 5.93999 62.3916 5.41999Z" fill="black"/>
<path d="M70.6763 22.37C70.0763 21.75 69.7763 21.02 69.7763 20.18C69.7763 19.34 70.0763 18.62 70.6763 18.02C71.2763 17.42 71.9963 17.12 72.8363 17.12C73.6763 17.12 74.3963 17.42 74.9963 18.02C75.6163 18.62 75.9263 19.34 75.9263 20.18C75.9263 21 75.6163 21.72 74.9963 22.34C74.3963 22.96 73.6763 23.27 72.8363 23.27C71.9963 23.27 71.2763 22.97 70.6763 22.37Z" fill="black"/>
</svg>
