<svg width="129" height="33" viewBox="0 0 129 33" fill="none" xmlns="http://www.w3.org/2000/svg">
<g clip-path="url(#clip0)">
<path d="M56.248 30H51.8535L43.2988 15.9668V30H38.9043V8.67188H43.2988L51.8682 22.7344V8.67188H56.248V30ZM59.1484 21.9287C59.1484 20.3564 59.4512 18.9551 60.0566 17.7246C60.6621 16.4941 61.5312 15.542 62.6641 14.8682C63.8066 14.1943 65.1299 13.8574 66.6338 13.8574C68.7725 13.8574 70.5156 14.5117 71.8633 15.8203C73.2207 17.1289 73.9775 18.9062 74.1338 21.1523L74.1631 22.2363C74.1631 24.668 73.4844 26.6211 72.127 28.0957C70.7695 29.5605 68.9482 30.293 66.6631 30.293C64.3779 30.293 62.5518 29.5605 61.1846 28.0957C59.8271 26.6309 59.1484 24.6387 59.1484 22.1191V21.9287ZM63.3818 22.2363C63.3818 23.7402 63.665 24.8926 64.2314 25.6934C64.7979 26.4844 65.6084 26.8799 66.6631 26.8799C67.6885 26.8799 68.4893 26.4893 69.0654 25.708C69.6416 24.917 69.9297 23.6572 69.9297 21.9287C69.9297 20.4541 69.6416 19.3115 69.0654 18.501C68.4893 17.6904 67.6787 17.2852 66.6338 17.2852C65.5986 17.2852 64.7979 17.6904 64.2314 18.501C63.665 19.3018 63.3818 20.5469 63.3818 22.2363ZM85.6768 18.1201C85.1006 18.042 84.5928 18.0029 84.1533 18.0029C82.5518 18.0029 81.502 18.5449 81.0039 19.6289V30H76.7705V14.1504H80.7695L80.8867 16.04C81.7363 14.585 82.9131 13.8574 84.417 13.8574C84.8857 13.8574 85.3252 13.9209 85.7354 14.0479L85.6768 18.1201ZM94.7295 30.293C92.4053 30.293 90.5107 29.5801 89.0459 28.1543C87.5908 26.7285 86.8633 24.8291 86.8633 22.4561V22.0459C86.8633 20.4541 87.1709 19.0332 87.7861 17.7832C88.4014 16.5234 89.2705 15.5566 90.3936 14.8828C91.5264 14.1992 92.8154 13.8574 94.2607 13.8574C96.4287 13.8574 98.1328 14.541 99.373 15.9082C100.623 17.2754 101.248 19.2139 101.248 21.7236V23.4521H91.1553C91.292 24.4873 91.7021 25.3174 92.3857 25.9424C93.0791 26.5674 93.9531 26.8799 95.0078 26.8799C96.6387 26.8799 97.9131 26.2891 98.8311 25.1074L100.911 27.4365C100.276 28.335 99.417 29.0381 98.333 29.5459C97.249 30.0439 96.0479 30.293 94.7295 30.293ZM94.2461 17.2852C93.4062 17.2852 92.7227 17.5684 92.1953 18.1348C91.6777 18.7012 91.3457 19.5117 91.1992 20.5664H97.0879V20.2295C97.0684 19.292 96.8145 18.5693 96.3262 18.0615C95.8379 17.5439 95.1445 17.2852 94.2461 17.2852ZM107.562 14.1504L107.693 15.9814C108.826 14.5654 110.345 13.8574 112.249 13.8574C113.929 13.8574 115.179 14.3506 115.999 15.3369C116.819 16.3232 117.239 17.7979 117.259 19.7607V30H113.025V19.8633C113.025 18.9648 112.83 18.3154 112.439 17.915C112.049 17.5049 111.399 17.2998 110.491 17.2998C109.3 17.2998 108.406 17.8076 107.811 18.8232V30H103.577V14.1504H107.562ZM120.701 27.9199C120.701 27.2461 120.926 26.6992 121.375 26.2793C121.834 25.8594 122.405 25.6494 123.089 25.6494C123.782 25.6494 124.354 25.8594 124.803 26.2793C125.262 26.6992 125.491 27.2461 125.491 27.9199C125.491 28.584 125.267 29.126 124.817 29.5459C124.368 29.9561 123.792 30.1611 123.089 30.1611C122.396 30.1611 121.824 29.9561 121.375 29.5459C120.926 29.126 120.701 28.584 120.701 27.9199Z" fill="#2D2E2E"/>
<path fill-rule="evenodd" clip-rule="evenodd" d="M13 33C21.8366 33 29 25.6127 29 16.5C29 7.3873 21.8366 0 13 0" fill="#FCBC14"/>
<path fill-rule="evenodd" clip-rule="evenodd" d="M13 8C5.8203 8 0 13.5964 0 20.5C0 27.4036 5.8203 33 13 33" fill="#7E67E9"/>
</g>
<defs>
<clipPath id="clip0">
<rect width="129" height="33" fill="white"/>
</clipPath>
</defs>
</svg>
