<svg width="129" height="33" viewBox="0 0 129 33" fill="none" xmlns="http://www.w3.org/2000/svg">
<g clip-path="url(#clip0)">
<path d="M56.248 31H51.8535L43.2988 16.9668V31H38.9043V9.67188H43.2988L51.8682 23.7344V9.67188H56.248V31ZM59.1484 22.9287C59.1484 21.3564 59.4512 19.9551 60.0566 18.7246C60.6621 17.4941 61.5312 16.542 62.6641 15.8682C63.8066 15.1943 65.1299 14.8574 66.6338 14.8574C68.7725 14.8574 70.5156 15.5117 71.8633 16.8203C73.2207 18.1289 73.9775 19.9062 74.1338 22.1523L74.1631 23.2363C74.1631 25.668 73.4844 27.6211 72.127 29.0957C70.7695 30.5605 68.9482 31.293 66.6631 31.293C64.3779 31.293 62.5518 30.5605 61.1846 29.0957C59.8271 27.6309 59.1484 25.6387 59.1484 23.1191V22.9287ZM63.3818 23.2363C63.3818 24.7402 63.665 25.8926 64.2314 26.6934C64.7979 27.4844 65.6084 27.8799 66.6631 27.8799C67.6885 27.8799 68.4893 27.4893 69.0654 26.708C69.6416 25.917 69.9297 24.6572 69.9297 22.9287C69.9297 21.4541 69.6416 20.3115 69.0654 19.501C68.4893 18.6904 67.6787 18.2852 66.6338 18.2852C65.5986 18.2852 64.7979 18.6904 64.2314 19.501C63.665 20.3018 63.3818 21.5469 63.3818 23.2363ZM85.6768 19.1201C85.1006 19.042 84.5928 19.0029 84.1533 19.0029C82.5518 19.0029 81.502 19.5449 81.0039 20.6289V31H76.7705V15.1504H80.7695L80.8867 17.04C81.7363 15.585 82.9131 14.8574 84.417 14.8574C84.8857 14.8574 85.3252 14.9209 85.7354 15.0479L85.6768 19.1201ZM94.7295 31.293C92.4053 31.293 90.5107 30.5801 89.0459 29.1543C87.5908 27.7285 86.8633 25.8291 86.8633 23.4561V23.0459C86.8633 21.4541 87.1709 20.0332 87.7861 18.7832C88.4014 17.5234 89.2705 16.5566 90.3936 15.8828C91.5264 15.1992 92.8154 14.8574 94.2607 14.8574C96.4287 14.8574 98.1328 15.541 99.373 16.9082C100.623 18.2754 101.248 20.2139 101.248 22.7236V24.4521H91.1553C91.292 25.4873 91.7021 26.3174 92.3857 26.9424C93.0791 27.5674 93.9531 27.8799 95.0078 27.8799C96.6387 27.8799 97.9131 27.2891 98.8311 26.1074L100.911 28.4365C100.276 29.335 99.417 30.0381 98.333 30.5459C97.249 31.0439 96.0479 31.293 94.7295 31.293ZM94.2461 18.2852C93.4062 18.2852 92.7227 18.5684 92.1953 19.1348C91.6777 19.7012 91.3457 20.5117 91.1992 21.5664H97.0879V21.2295C97.0684 20.292 96.8145 19.5693 96.3262 19.0615C95.8379 18.5439 95.1445 18.2852 94.2461 18.2852ZM107.562 15.1504L107.693 16.9814C108.826 15.5654 110.345 14.8574 112.249 14.8574C113.929 14.8574 115.179 15.3506 115.999 16.3369C116.819 17.3232 117.239 18.7979 117.259 20.7607V31H113.025V20.8633C113.025 19.9648 112.83 19.3154 112.439 18.915C112.049 18.5049 111.399 18.2998 110.491 18.2998C109.3 18.2998 108.406 18.8076 107.811 19.8232V31H103.577V15.1504H107.562ZM120.701 28.9199C120.701 28.2461 120.926 27.6992 121.375 27.2793C121.834 26.8594 122.405 26.6494 123.089 26.6494C123.782 26.6494 124.354 26.8594 124.803 27.2793C125.262 27.6992 125.491 28.2461 125.491 28.9199C125.491 29.584 125.267 30.126 124.817 30.5459C124.368 30.9561 123.792 31.1611 123.089 31.1611C122.396 31.1611 121.824 30.9561 121.375 30.5459C120.926 30.126 120.701 29.584 120.701 28.9199Z" fill="white"/>
<path fill-rule="evenodd" clip-rule="evenodd" d="M13 33C21.8366 33 29 25.6127 29 16.5C29 7.3873 21.8366 0 13 0" fill="#FCBC14"/>
<path fill-rule="evenodd" clip-rule="evenodd" d="M13 8C5.8203 8 0 13.5964 0 20.5C0 27.4036 5.8203 33 13 33" fill="#7E67E9"/>
</g>
<defs>
<clipPath id="clip0">
<rect width="129" height="33" fill="white"/>
</clipPath>
</defs>
</svg>
