<svg width="159" height="41" viewBox="0 0 159 41" fill="none" xmlns="http://www.w3.org/2000/svg">
<path d="M58.856 15.4558H53.288V12.9118H67.568V15.4558H61.976V29.9998H58.856V15.4558Z" fill="white"/>
<path d="M74.1209 17.5918C74.5849 17.5918 74.9849 17.6558 75.3209 17.7838L75.2969 20.5198C74.7849 20.3118 74.2569 20.2078 73.7129 20.2078C72.6889 20.2078 71.9049 20.5038 71.3609 21.0958C70.8329 21.6878 70.5689 22.4718 70.5689 23.4478V29.9998H67.5929V21.3118C67.5929 20.0318 67.5289 18.8878 67.4009 17.8798H70.2089L70.4489 20.0158C70.7529 19.2318 71.2329 18.6318 71.8889 18.2158C72.5449 17.7998 73.2889 17.5918 74.1209 17.5918Z" fill="white"/>
<path d="M88.349 17.8798V29.9998H85.397V28.0558C85.029 28.7278 84.501 29.2558 83.813 29.6398C83.125 30.0078 82.341 30.1918 81.461 30.1918C80.405 30.1918 79.469 29.9358 78.653 29.4238C77.837 28.9118 77.205 28.1838 76.757 27.2398C76.309 26.2958 76.085 25.1998 76.085 23.9518C76.085 22.7038 76.309 21.5998 76.757 20.6398C77.221 19.6638 77.861 18.9118 78.677 18.3838C79.493 17.8398 80.421 17.5678 81.461 17.5678C82.341 17.5678 83.125 17.7598 83.813 18.1438C84.501 18.5118 85.029 19.0318 85.397 19.7038V17.8798H88.349ZM82.277 27.8398C83.269 27.8398 84.037 27.4958 84.581 26.8078C85.125 26.1198 85.397 25.1518 85.397 23.9038C85.397 22.6238 85.125 21.6398 84.581 20.9518C84.037 20.2638 83.261 19.9198 82.253 19.9198C81.261 19.9198 80.485 20.2798 79.925 20.9998C79.381 21.7038 79.109 22.6878 79.109 23.9518C79.109 25.1998 79.381 26.1598 79.925 26.8318C80.485 27.5038 81.269 27.8398 82.277 27.8398Z" fill="white"/>
<path d="M97.3524 14.7118C96.0564 14.7118 95.4084 15.4238 95.4084 16.8478V17.8798H98.1204V20.1358H95.4084V29.9998H92.4084V20.1358H90.1044V17.8798H92.4084V16.7038C92.4084 15.2638 92.7684 14.1598 93.4884 13.3918C94.2244 12.6078 95.2724 12.2158 96.6324 12.2158C97.3844 12.2158 98.0164 12.3118 98.5284 12.5038V14.8798C98.0804 14.7678 97.6884 14.7118 97.3524 14.7118Z" fill="white"/>
<path d="M111.904 17.8798V29.9998H108.952V28.0558C108.584 28.7278 108.056 29.2558 107.368 29.6398C106.68 30.0078 105.896 30.1918 105.016 30.1918C103.96 30.1918 103.024 29.9358 102.208 29.4238C101.392 28.9118 100.76 28.1838 100.312 27.2398C99.8637 26.2958 99.6397 25.1998 99.6397 23.9518C99.6397 22.7038 99.8637 21.5998 100.312 20.6398C100.776 19.6638 101.416 18.9118 102.232 18.3838C103.048 17.8398 103.976 17.5678 105.016 17.5678C105.896 17.5678 106.68 17.7598 107.368 18.1438C108.056 18.5118 108.584 19.0318 108.952 19.7038V17.8798H111.904ZM105.832 27.8398C106.824 27.8398 107.592 27.4958 108.136 26.8078C108.68 26.1198 108.952 25.1518 108.952 23.9038C108.952 22.6238 108.68 21.6398 108.136 20.9518C107.592 20.2638 106.816 19.9198 105.808 19.9198C104.816 19.9198 104.04 20.2798 103.48 20.9998C102.936 21.7038 102.664 22.6878 102.664 23.9518C102.664 25.1998 102.936 26.1598 103.48 26.8318C104.04 27.5038 104.824 27.8398 105.832 27.8398Z" fill="white"/>
<path d="M115.171 12.3358H118.147V29.9998H115.171V12.3358Z" fill="white"/>
<path d="M133.141 17.8798V29.6158C133.141 31.5038 132.621 32.9358 131.581 33.9118C130.541 34.8878 129.013 35.3758 126.997 35.3758C125.125 35.3758 123.477 34.9838 122.053 34.1998L122.533 31.9198C124.005 32.6878 125.469 33.0718 126.925 33.0718C129.085 33.0718 130.165 31.9998 130.165 29.8558V27.4558C129.797 28.1118 129.261 28.6478 128.557 29.0638C127.853 29.4638 127.061 29.6638 126.181 29.6638C125.125 29.6638 124.181 29.4158 123.349 28.9198C122.533 28.4078 121.893 27.6958 121.429 26.7838C120.981 25.8558 120.757 24.7998 120.757 23.6158C120.757 22.4318 120.981 21.3838 121.429 20.4718C121.893 19.5438 122.533 18.8318 123.349 18.3358C124.181 17.8238 125.125 17.5678 126.181 17.5678C127.077 17.5678 127.869 17.7598 128.557 18.1438C129.261 18.5118 129.797 19.0318 130.165 19.7038V17.8798H133.141ZM126.973 27.3118C127.965 27.3118 128.741 26.9838 129.301 26.3278C129.877 25.6718 130.165 24.7678 130.165 23.6158C130.165 22.4638 129.885 21.5598 129.325 20.9038C128.765 20.2478 127.981 19.9198 126.973 19.9198C125.981 19.9198 125.197 20.2478 124.621 20.9038C124.061 21.5598 123.781 22.4638 123.781 23.6158C123.781 24.7678 124.061 25.6718 124.621 26.3278C125.197 26.9838 125.981 27.3118 126.973 27.3118Z" fill="white"/>
<path d="M147.974 17.8798V29.9998H145.022V28.0558C144.654 28.7278 144.126 29.2558 143.438 29.6398C142.75 30.0078 141.966 30.1918 141.086 30.1918C140.03 30.1918 139.094 29.9358 138.278 29.4238C137.462 28.9118 136.83 28.1838 136.382 27.2398C135.934 26.2958 135.71 25.1998 135.71 23.9518C135.71 22.7038 135.934 21.5998 136.382 20.6398C136.846 19.6638 137.486 18.9118 138.302 18.3838C139.118 17.8398 140.046 17.5678 141.086 17.5678C141.966 17.5678 142.75 17.7598 143.438 18.1438C144.126 18.5118 144.654 19.0318 145.022 19.7038V17.8798H147.974ZM141.902 27.8398C142.894 27.8398 143.662 27.4958 144.206 26.8078C144.75 26.1198 145.022 25.1518 145.022 23.9038C145.022 22.6238 144.75 21.6398 144.206 20.9518C143.662 20.2638 142.886 19.9198 141.878 19.9198C140.886 19.9198 140.11 20.2798 139.55 20.9998C139.006 21.7038 138.734 22.6878 138.734 23.9518C138.734 25.1998 139.006 26.1598 139.55 26.8318C140.11 27.5038 140.894 27.8398 141.902 27.8398Z" fill="white"/>
<path d="M157.769 17.5918C158.233 17.5918 158.633 17.6558 158.969 17.7838L158.945 20.5198C158.433 20.3118 157.905 20.2078 157.361 20.2078C156.337 20.2078 155.553 20.5038 155.009 21.0958C154.481 21.6878 154.217 22.4718 154.217 23.4478V29.9998H151.241V21.3118C151.241 20.0318 151.177 18.8878 151.049 17.8798H153.857L154.097 20.0158C154.401 19.2318 154.881 18.6318 155.537 18.2158C156.193 17.7998 156.937 17.5918 157.769 17.5918Z" fill="white"/>
<circle cx="20.5" cy="20.5" r="20.5" fill="white"/>
<path d="M19.344 15.2438H13.312V12.4878H28.782V15.2438H22.724V30.9998H19.344V15.2438Z" fill="#5B9BF3"/>
</svg>
