<svg width="99" height="700" viewBox="0 0 99 700" fill="none" xmlns="http://www.w3.org/2000/svg">
<g opacity="0.37">
<path fill-rule="evenodd" clip-rule="evenodd" d="M97.5006 3.86792C96.6716 3.86792 96 3.19747 96 2.36851C96 1.53954 96.6716 0.86792 97.5006 0.86792C98.3284 0.86792 99 1.53954 99 2.36851C99 3.19747 98.3284 3.86792 97.5006 3.86792Z" fill="#937BFF"/>
<path fill-rule="evenodd" clip-rule="evenodd" d="M72.5 3.86792C71.6725 3.86792 71 3.19747 71 2.36851C71 1.53954 71.6725 0.86792 72.5 0.86792C73.3286 0.86792 74 1.53954 74 2.36851C74 3.19747 73.3286 3.86792 72.5 3.86792Z" fill="#937BFF"/>
<path fill-rule="evenodd" clip-rule="evenodd" d="M47.5 3.86792C46.6714 3.86792 46 3.19747 46 2.36851C46 1.53954 46.6714 0.86792 47.5 0.86792C48.3275 0.86792 49 1.53954 49 2.36851C49 3.19747 48.3275 3.86792 47.5 3.86792Z" fill="#937BFF"/>
<path fill-rule="evenodd" clip-rule="evenodd" d="M21.5 3.86792C20.6714 3.86792 20 3.19747 20 2.36851C20 1.53954 20.6714 0.86792 21.5 0.86792C22.3286 0.86792 23 1.53954 23 2.36851C23 3.19747 22.3286 3.86792 21.5 3.86792Z" fill="#937BFF"/>
<path fill-rule="evenodd" clip-rule="evenodd" d="M1.5 4C0.671361 4 0 3.32955 0 2.50059C0 1.67162 0.671361 1 1.5 1C2.32864 1 3 1.67162 3 2.50059C3 3.32955 2.32864 4 1.5 4Z" fill="#937BFF"/>
<path fill-rule="evenodd" clip-rule="evenodd" d="M85.5 27.8679C84.6714 27.8679 84 27.1954 84 26.3679C84 25.5393 84.6714 24.8679 85.5 24.8679C86.3286 24.8679 87 25.5393 87 26.3679C87 27.1954 86.3286 27.8679 85.5 27.8679Z" fill="#937BFF"/>
<path fill-rule="evenodd" clip-rule="evenodd" d="M60.5 27.8679C59.6714 27.8679 59 27.1954 59 26.3679C59 25.5393 59.6714 24.8679 60.5 24.8679C61.3286 24.8679 62 25.5393 62 26.3679C62 27.1954 61.3286 27.8679 60.5 27.8679Z" fill="#937BFF"/>
<path fill-rule="evenodd" clip-rule="evenodd" d="M35.5006 27.8679C34.6716 27.8679 34 27.1954 34 26.3679C34 25.5393 34.6716 24.8679 35.5006 24.8679C36.3284 24.8679 37 25.5393 37 26.3679C37 27.1954 36.3284 27.8679 35.5006 27.8679Z" fill="#937BFF"/>
<path fill-rule="evenodd" clip-rule="evenodd" d="M11.5 27.8679C10.6725 27.8679 10 27.1954 10 26.3679C10 25.5393 10.6725 24.8679 11.5 24.8679C12.3286 24.8679 13 25.5393 13 26.3679C13 27.1954 12.3286 27.8679 11.5 27.8679Z" fill="#937BFF"/>
<path fill-rule="evenodd" clip-rule="evenodd" d="M97.5006 51.8679C96.6716 51.8679 96 51.1954 96 50.3679C96 49.5393 96.6716 48.8679 97.5006 48.8679C98.3284 48.8679 99 49.5393 99 50.3679C99 51.1954 98.3284 51.8679 97.5006 51.8679Z" fill="#937BFF"/>
<path fill-rule="evenodd" clip-rule="evenodd" d="M72.5 51.8679C71.6725 51.8679 71 51.1954 71 50.3679C71 49.5393 71.6725 48.8679 72.5 48.8679C73.3286 48.8679 74 49.5393 74 50.3679C74 51.1954 73.3286 51.8679 72.5 51.8679Z" fill="#937BFF"/>
<path fill-rule="evenodd" clip-rule="evenodd" d="M47.5 51.8679C46.6714 51.8679 46 51.1954 46 50.3679C46 49.5393 46.6714 48.8679 47.5 48.8679C48.3275 48.8679 49 49.5393 49 50.3679C49 51.1954 48.3275 51.8679 47.5 51.8679Z" fill="#937BFF"/>
<path fill-rule="evenodd" clip-rule="evenodd" d="M21.5 51.8679C20.6714 51.8679 20 51.1954 20 50.3679C20 49.5393 20.6714 48.8679 21.5 48.8679C22.3286 48.8679 23 49.5393 23 50.3679C23 51.1954 22.3286 51.8679 21.5 51.8679Z" fill="#937BFF"/>
<path fill-rule="evenodd" clip-rule="evenodd" d="M1.5 52C0.671361 52 0 51.3275 0 50.5C0 49.6714 0.671361 49 1.5 49C2.32864 49 3 49.6714 3 50.5C3 51.3275 2.32864 52 1.5 52Z" fill="#937BFF"/>
<path fill-rule="evenodd" clip-rule="evenodd" d="M85.5 78.8679C84.6714 78.8679 84 78.1954 84 77.3679C84 76.5393 84.6714 75.8679 85.5 75.8679C86.3286 75.8679 87 76.5393 87 77.3679C87 78.1954 86.3286 78.8679 85.5 78.8679Z" fill="#937BFF"/>
<path fill-rule="evenodd" clip-rule="evenodd" d="M60.5 78.8679C59.6714 78.8679 59 78.1954 59 77.3679C59 76.5393 59.6714 75.8679 60.5 75.8679C61.3286 75.8679 62 76.5393 62 77.3679C62 78.1954 61.3286 78.8679 60.5 78.8679Z" fill="#937BFF"/>
<path fill-rule="evenodd" clip-rule="evenodd" d="M35.5006 78.8679C34.6716 78.8679 34 78.1954 34 77.3679C34 76.5393 34.6716 75.8679 35.5006 75.8679C36.3284 75.8679 37 76.5393 37 77.3679C37 78.1954 36.3284 78.8679 35.5006 78.8679Z" fill="#937BFF"/>
<path fill-rule="evenodd" clip-rule="evenodd" d="M11.5 78.8679C10.6725 78.8679 10 78.1954 10 77.3679C10 76.5393 10.6725 75.8679 11.5 75.8679C12.3286 75.8679 13 76.5393 13 77.3679C13 78.1954 12.3286 78.8679 11.5 78.8679Z" fill="#937BFF"/>
<path fill-rule="evenodd" clip-rule="evenodd" d="M97.5006 102.868C96.6716 102.868 96 102.197 96 101.369C96 100.54 96.6716 99.8679 97.5006 99.8679C98.3284 99.8679 99 100.54 99 101.369C99 102.197 98.3284 102.868 97.5006 102.868Z" fill="#937BFF"/>
<path fill-rule="evenodd" clip-rule="evenodd" d="M72.5 102.868C71.6725 102.868 71 102.197 71 101.369C71 100.54 71.6725 99.8679 72.5 99.8679C73.3286 99.8679 74 100.54 74 101.369C74 102.197 73.3286 102.868 72.5 102.868Z" fill="#937BFF"/>
<path fill-rule="evenodd" clip-rule="evenodd" d="M47.5 102.868C46.6714 102.868 46 102.197 46 101.369C46 100.54 46.6714 99.8679 47.5 99.8679C48.3275 99.8679 49 100.54 49 101.369C49 102.197 48.3275 102.868 47.5 102.868Z" fill="#937BFF"/>
<path fill-rule="evenodd" clip-rule="evenodd" d="M21.5 102.868C20.6714 102.868 20 102.197 20 101.369C20 100.54 20.6714 99.8679 21.5 99.8679C22.3286 99.8679 23 100.54 23 101.369C23 102.197 22.3286 102.868 21.5 102.868Z" fill="#937BFF"/>
<path fill-rule="evenodd" clip-rule="evenodd" d="M1.5 103C0.671361 103 0 102.33 0 101.501C0 100.672 0.671361 100 1.5 100C2.32864 100 3 100.672 3 101.501C3 102.33 2.32864 103 1.5 103Z" fill="#937BFF"/>
<path fill-rule="evenodd" clip-rule="evenodd" d="M85.5 127.868C84.6714 127.868 84 127.197 84 126.369C84 125.54 84.6714 124.868 85.5 124.868C86.3286 124.868 87 125.54 87 126.369C87 127.197 86.3286 127.868 85.5 127.868Z" fill="#937BFF"/>
<path fill-rule="evenodd" clip-rule="evenodd" d="M60.5 127.868C59.6714 127.868 59 127.197 59 126.369C59 125.54 59.6714 124.868 60.5 124.868C61.3286 124.868 62 125.54 62 126.369C62 127.197 61.3286 127.868 60.5 127.868Z" fill="#937BFF"/>
<path fill-rule="evenodd" clip-rule="evenodd" d="M35.5006 127.868C34.6716 127.868 34 127.197 34 126.369C34 125.54 34.6716 124.868 35.5006 124.868C36.3284 124.868 37 125.54 37 126.369C37 127.197 36.3284 127.868 35.5006 127.868Z" fill="#937BFF"/>
<path fill-rule="evenodd" clip-rule="evenodd" d="M11.5 127.868C10.6725 127.868 10 127.197 10 126.369C10 125.54 10.6725 124.868 11.5 124.868C12.3286 124.868 13 125.54 13 126.369C13 127.197 12.3286 127.868 11.5 127.868Z" fill="#937BFF"/>
<path fill-rule="evenodd" clip-rule="evenodd" d="M97.5006 153.868C96.6716 153.868 96 153.195 96 152.368C96 151.539 96.6716 150.868 97.5006 150.868C98.3284 150.868 99 151.539 99 152.368C99 153.195 98.3284 153.868 97.5006 153.868Z" fill="#937BFF"/>
<path fill-rule="evenodd" clip-rule="evenodd" d="M72.5 153.868C71.6725 153.868 71 153.195 71 152.368C71 151.539 71.6725 150.868 72.5 150.868C73.3286 150.868 74 151.539 74 152.368C74 153.195 73.3286 153.868 72.5 153.868Z" fill="#937BFF"/>
<path fill-rule="evenodd" clip-rule="evenodd" d="M47.5 153.868C46.6714 153.868 46 153.195 46 152.368C46 151.539 46.6714 150.868 47.5 150.868C48.3275 150.868 49 151.539 49 152.368C49 153.195 48.3275 153.868 47.5 153.868Z" fill="#937BFF"/>
<path fill-rule="evenodd" clip-rule="evenodd" d="M21.5 153.868C20.6714 153.868 20 153.195 20 152.368C20 151.539 20.6714 150.868 21.5 150.868C22.3286 150.868 23 151.539 23 152.368C23 153.195 22.3286 153.868 21.5 153.868Z" fill="#937BFF"/>
<path fill-rule="evenodd" clip-rule="evenodd" d="M1.5 154C0.671361 154 0 153.327 0 152.5C0 151.671 0.671361 151 1.5 151C2.32864 151 3 151.671 3 152.5C3 153.327 2.32864 154 1.5 154Z" fill="#937BFF"/>
<path fill-rule="evenodd" clip-rule="evenodd" d="M85.5 178.868C84.6714 178.868 84 178.195 84 177.368C84 176.539 84.6714 175.868 85.5 175.868C86.3286 175.868 87 176.539 87 177.368C87 178.195 86.3286 178.868 85.5 178.868Z" fill="#937BFF"/>
<path fill-rule="evenodd" clip-rule="evenodd" d="M60.5 178.868C59.6714 178.868 59 178.195 59 177.368C59 176.539 59.6714 175.868 60.5 175.868C61.3286 175.868 62 176.539 62 177.368C62 178.195 61.3286 178.868 60.5 178.868Z" fill="#937BFF"/>
<path fill-rule="evenodd" clip-rule="evenodd" d="M35.5006 178.868C34.6716 178.868 34 178.195 34 177.368C34 176.539 34.6716 175.868 35.5006 175.868C36.3284 175.868 37 176.539 37 177.368C37 178.195 36.3284 178.868 35.5006 178.868Z" fill="#937BFF"/>
<path fill-rule="evenodd" clip-rule="evenodd" d="M11.5 178.868C10.6725 178.868 10 178.195 10 177.368C10 176.539 10.6725 175.868 11.5 175.868C12.3286 175.868 13 176.539 13 177.368C13 178.195 12.3286 178.868 11.5 178.868Z" fill="#937BFF"/>
<path fill-rule="evenodd" clip-rule="evenodd" d="M97.5006 202.868C96.6716 202.868 96 202.195 96 201.368C96 200.539 96.6716 199.868 97.5006 199.868C98.3284 199.868 99 200.539 99 201.368C99 202.195 98.3284 202.868 97.5006 202.868Z" fill="#937BFF"/>
<path fill-rule="evenodd" clip-rule="evenodd" d="M72.5 202.868C71.6725 202.868 71 202.195 71 201.368C71 200.539 71.6725 199.868 72.5 199.868C73.3286 199.868 74 200.539 74 201.368C74 202.195 73.3286 202.868 72.5 202.868Z" fill="#937BFF"/>
<path fill-rule="evenodd" clip-rule="evenodd" d="M47.5 202.868C46.6714 202.868 46 202.195 46 201.368C46 200.539 46.6714 199.868 47.5 199.868C48.3275 199.868 49 200.539 49 201.368C49 202.195 48.3275 202.868 47.5 202.868Z" fill="#937BFF"/>
<path fill-rule="evenodd" clip-rule="evenodd" d="M21.5 202.868C20.6714 202.868 20 202.195 20 201.368C20 200.539 20.6714 199.868 21.5 199.868C22.3286 199.868 23 200.539 23 201.368C23 202.195 22.3286 202.868 21.5 202.868Z" fill="#937BFF"/>
<path fill-rule="evenodd" clip-rule="evenodd" d="M1.5 203C0.671361 203 0 202.327 0 201.5C0 200.671 0.671361 200 1.5 200C2.32864 200 3 200.671 3 201.5C3 202.327 2.32864 203 1.5 203Z" fill="#937BFF"/>
<path fill-rule="evenodd" clip-rule="evenodd" d="M85.5 229.868C84.6714 229.868 84 229.197 84 228.369C84 227.54 84.6714 226.868 85.5 226.868C86.3286 226.868 87 227.54 87 228.369C87 229.197 86.3286 229.868 85.5 229.868Z" fill="#937BFF"/>
<path fill-rule="evenodd" clip-rule="evenodd" d="M60.5 229.868C59.6714 229.868 59 229.197 59 228.369C59 227.54 59.6714 226.868 60.5 226.868C61.3286 226.868 62 227.54 62 228.369C62 229.197 61.3286 229.868 60.5 229.868Z" fill="#937BFF"/>
<path fill-rule="evenodd" clip-rule="evenodd" d="M35.5006 229.868C34.6716 229.868 34 229.197 34 228.369C34 227.54 34.6716 226.868 35.5006 226.868C36.3284 226.868 37 227.54 37 228.369C37 229.197 36.3284 229.868 35.5006 229.868Z" fill="#937BFF"/>
<path fill-rule="evenodd" clip-rule="evenodd" d="M11.5 229.868C10.6725 229.868 10 229.197 10 228.369C10 227.54 10.6725 226.868 11.5 226.868C12.3286 226.868 13 227.54 13 228.369C13 229.197 12.3286 229.868 11.5 229.868Z" fill="#937BFF"/>
<path fill-rule="evenodd" clip-rule="evenodd" d="M97.5006 253.868C96.6716 253.868 96 253.197 96 252.369C96 251.54 96.6716 250.868 97.5006 250.868C98.3284 250.868 99 251.54 99 252.369C99 253.197 98.3284 253.868 97.5006 253.868Z" fill="#937BFF"/>
<path fill-rule="evenodd" clip-rule="evenodd" d="M72.5 253.868C71.6725 253.868 71 253.197 71 252.369C71 251.54 71.6725 250.868 72.5 250.868C73.3286 250.868 74 251.54 74 252.369C74 253.197 73.3286 253.868 72.5 253.868Z" fill="#937BFF"/>
<path fill-rule="evenodd" clip-rule="evenodd" d="M47.5 253.868C46.6714 253.868 46 253.197 46 252.369C46 251.54 46.6714 250.868 47.5 250.868C48.3275 250.868 49 251.54 49 252.369C49 253.197 48.3275 253.868 47.5 253.868Z" fill="#937BFF"/>
<path fill-rule="evenodd" clip-rule="evenodd" d="M21.5 253.868C20.6714 253.868 20 253.197 20 252.369C20 251.54 20.6714 250.868 21.5 250.868C22.3286 250.868 23 251.54 23 252.369C23 253.197 22.3286 253.868 21.5 253.868Z" fill="#937BFF"/>
<path fill-rule="evenodd" clip-rule="evenodd" d="M1.5 254C0.671361 254 0 253.33 0 252.501C0 251.672 0.671361 251 1.5 251C2.32864 251 3 251.672 3 252.501C3 253.33 2.32864 254 1.5 254Z" fill="#937BFF"/>
<path fill-rule="evenodd" clip-rule="evenodd" d="M85.5 272.868C84.6714 272.868 84 272.195 84 271.368C84 270.539 84.6714 269.868 85.5 269.868C86.3286 269.868 87 270.539 87 271.368C87 272.195 86.3286 272.868 85.5 272.868Z" fill="#937BFF"/>
<path fill-rule="evenodd" clip-rule="evenodd" d="M60.5 272.868C59.6714 272.868 59 272.195 59 271.368C59 270.539 59.6714 269.868 60.5 269.868C61.3286 269.868 62 270.539 62 271.368C62 272.195 61.3286 272.868 60.5 272.868Z" fill="#937BFF"/>
<path fill-rule="evenodd" clip-rule="evenodd" d="M35.5006 272.868C34.6716 272.868 34 272.195 34 271.368C34 270.539 34.6716 269.868 35.5006 269.868C36.3284 269.868 37 270.539 37 271.368C37 272.195 36.3284 272.868 35.5006 272.868Z" fill="#937BFF"/>
<path fill-rule="evenodd" clip-rule="evenodd" d="M11.5 272.868C10.6725 272.868 10 272.195 10 271.368C10 270.539 10.6725 269.868 11.5 269.868C12.3286 269.868 13 270.539 13 271.368C13 272.195 12.3286 272.868 11.5 272.868Z" fill="#937BFF"/>
<path fill-rule="evenodd" clip-rule="evenodd" d="M97.5006 298.868C96.6716 298.868 96 298.197 96 297.369C96 296.54 96.6716 295.868 97.5006 295.868C98.3284 295.868 99 296.54 99 297.369C99 298.197 98.3284 298.868 97.5006 298.868Z" fill="#937BFF"/>
<path fill-rule="evenodd" clip-rule="evenodd" d="M72.5 298.868C71.6725 298.868 71 298.197 71 297.369C71 296.54 71.6725 295.868 72.5 295.868C73.3286 295.868 74 296.54 74 297.369C74 298.197 73.3286 298.868 72.5 298.868Z" fill="#937BFF"/>
<path fill-rule="evenodd" clip-rule="evenodd" d="M47.5 298.868C46.6714 298.868 46 298.197 46 297.369C46 296.54 46.6714 295.868 47.5 295.868C48.3275 295.868 49 296.54 49 297.369C49 298.197 48.3275 298.868 47.5 298.868Z" fill="#937BFF"/>
<path fill-rule="evenodd" clip-rule="evenodd" d="M21.5 298.868C20.6714 298.868 20 298.197 20 297.369C20 296.54 20.6714 295.868 21.5 295.868C22.3286 295.868 23 296.54 23 297.369C23 298.197 22.3286 298.868 21.5 298.868Z" fill="#937BFF"/>
<path fill-rule="evenodd" clip-rule="evenodd" d="M1.5 299C0.671361 299 0 298.33 0 297.501C0 296.672 0.671361 296 1.5 296C2.32864 296 3 296.672 3 297.501C3 298.33 2.32864 299 1.5 299Z" fill="#937BFF"/>
<path fill-rule="evenodd" clip-rule="evenodd" d="M85.5 323.868C84.6714 323.868 84 323.196 84 322.369C84 321.54 84.6714 320.868 85.5 320.868C86.3286 320.868 87 321.54 87 322.369C87 323.196 86.3286 323.868 85.5 323.868Z" fill="#937BFF"/>
<path fill-rule="evenodd" clip-rule="evenodd" d="M60.5 323.868C59.6714 323.868 59 323.196 59 322.369C59 321.54 59.6714 320.868 60.5 320.868C61.3286 320.868 62 321.54 62 322.369C62 323.196 61.3286 323.868 60.5 323.868Z" fill="#937BFF"/>
<path fill-rule="evenodd" clip-rule="evenodd" d="M35.5006 323.868C34.6716 323.868 34 323.196 34 322.369C34 321.54 34.6716 320.868 35.5006 320.868C36.3284 320.868 37 321.54 37 322.369C37 323.196 36.3284 323.868 35.5006 323.868Z" fill="#937BFF"/>
<path fill-rule="evenodd" clip-rule="evenodd" d="M11.5 323.868C10.6725 323.868 10 323.196 10 322.369C10 321.54 10.6725 320.868 11.5 320.868C12.3286 320.868 13 321.54 13 322.369C13 323.196 12.3286 323.868 11.5 323.868Z" fill="#937BFF"/>
<path fill-rule="evenodd" clip-rule="evenodd" d="M97.5006 348.868C96.6716 348.868 96 348.195 96 347.368C96 346.539 96.6716 345.868 97.5006 345.868C98.3284 345.868 99 346.539 99 347.368C99 348.195 98.3284 348.868 97.5006 348.868Z" fill="#937BFF"/>
<path fill-rule="evenodd" clip-rule="evenodd" d="M72.5 348.868C71.6725 348.868 71 348.195 71 347.368C71 346.539 71.6725 345.868 72.5 345.868C73.3286 345.868 74 346.539 74 347.368C74 348.195 73.3286 348.868 72.5 348.868Z" fill="#937BFF"/>
<path fill-rule="evenodd" clip-rule="evenodd" d="M47.5 348.868C46.6714 348.868 46 348.195 46 347.368C46 346.539 46.6714 345.868 47.5 345.868C48.3275 345.868 49 346.539 49 347.368C49 348.195 48.3275 348.868 47.5 348.868Z" fill="#937BFF"/>
<path fill-rule="evenodd" clip-rule="evenodd" d="M21.5 348.868C20.6714 348.868 20 348.195 20 347.368C20 346.539 20.6714 345.868 21.5 345.868C22.3286 345.868 23 346.539 23 347.368C23 348.195 22.3286 348.868 21.5 348.868Z" fill="#937BFF"/>
<path fill-rule="evenodd" clip-rule="evenodd" d="M1.5 349C0.671361 349 0 348.327 0 347.5C0 346.671 0.671361 346 1.5 346C2.32864 346 3 346.671 3 347.5C3 348.327 2.32864 349 1.5 349Z" fill="#937BFF"/>
<path fill-rule="evenodd" clip-rule="evenodd" d="M85.5 373.868C84.6714 373.868 84 373.195 84 372.368C84 371.539 84.6714 370.868 85.5 370.868C86.3286 370.868 87 371.539 87 372.368C87 373.195 86.3286 373.868 85.5 373.868Z" fill="#937BFF"/>
<path fill-rule="evenodd" clip-rule="evenodd" d="M60.5 373.868C59.6714 373.868 59 373.195 59 372.368C59 371.539 59.6714 370.868 60.5 370.868C61.3286 370.868 62 371.539 62 372.368C62 373.195 61.3286 373.868 60.5 373.868Z" fill="#937BFF"/>
<path fill-rule="evenodd" clip-rule="evenodd" d="M35.5006 373.868C34.6716 373.868 34 373.195 34 372.368C34 371.539 34.6716 370.868 35.5006 370.868C36.3284 370.868 37 371.539 37 372.368C37 373.195 36.3284 373.868 35.5006 373.868Z" fill="#937BFF"/>
<path fill-rule="evenodd" clip-rule="evenodd" d="M11.5 373.868C10.6725 373.868 10 373.195 10 372.368C10 371.539 10.6725 370.868 11.5 370.868C12.3286 370.868 13 371.539 13 372.368C13 373.195 12.3286 373.868 11.5 373.868Z" fill="#937BFF"/>
<path fill-rule="evenodd" clip-rule="evenodd" d="M97.5006 398.868C96.6716 398.868 96 398.196 96 397.369C96 396.54 96.6716 395.868 97.5006 395.868C98.3284 395.868 99 396.54 99 397.369C99 398.196 98.3284 398.868 97.5006 398.868Z" fill="#937BFF"/>
<path fill-rule="evenodd" clip-rule="evenodd" d="M72.5 398.868C71.6725 398.868 71 398.196 71 397.369C71 396.54 71.6725 395.868 72.5 395.868C73.3286 395.868 74 396.54 74 397.369C74 398.196 73.3286 398.868 72.5 398.868Z" fill="#937BFF"/>
<path fill-rule="evenodd" clip-rule="evenodd" d="M47.5 398.868C46.6714 398.868 46 398.196 46 397.369C46 396.54 46.6714 395.868 47.5 395.868C48.3275 395.868 49 396.54 49 397.369C49 398.196 48.3275 398.868 47.5 398.868Z" fill="#937BFF"/>
<path fill-rule="evenodd" clip-rule="evenodd" d="M21.5 398.868C20.6714 398.868 20 398.196 20 397.369C20 396.54 20.6714 395.868 21.5 395.868C22.3286 395.868 23 396.54 23 397.369C23 398.196 22.3286 398.868 21.5 398.868Z" fill="#937BFF"/>
<path fill-rule="evenodd" clip-rule="evenodd" d="M1.5 399C0.671361 399 0 398.328 0 397.501C0 396.672 0.671361 396 1.5 396C2.32864 396 3 396.672 3 397.501C3 398.328 2.32864 399 1.5 399Z" fill="#937BFF"/>
<path fill-rule="evenodd" clip-rule="evenodd" d="M85.5 423.868C84.6714 423.868 84 423.197 84 422.369C84 421.54 84.6714 420.868 85.5 420.868C86.3286 420.868 87 421.54 87 422.369C87 423.197 86.3286 423.868 85.5 423.868Z" fill="#937BFF"/>
<path fill-rule="evenodd" clip-rule="evenodd" d="M60.5 423.868C59.6714 423.868 59 423.197 59 422.369C59 421.54 59.6714 420.868 60.5 420.868C61.3286 420.868 62 421.54 62 422.369C62 423.197 61.3286 423.868 60.5 423.868Z" fill="#937BFF"/>
<path fill-rule="evenodd" clip-rule="evenodd" d="M35.5006 423.868C34.6716 423.868 34 423.197 34 422.369C34 421.54 34.6716 420.868 35.5006 420.868C36.3284 420.868 37 421.54 37 422.369C37 423.197 36.3284 423.868 35.5006 423.868Z" fill="#937BFF"/>
<path fill-rule="evenodd" clip-rule="evenodd" d="M11.5 423.868C10.6725 423.868 10 423.197 10 422.369C10 421.54 10.6725 420.868 11.5 420.868C12.3286 420.868 13 421.54 13 422.369C13 423.197 12.3286 423.868 11.5 423.868Z" fill="#937BFF"/>
<path fill-rule="evenodd" clip-rule="evenodd" d="M97.5006 447.868C96.6716 447.868 96 447.197 96 446.369C96 445.54 96.6716 444.868 97.5006 444.868C98.3284 444.868 99 445.54 99 446.369C99 447.197 98.3284 447.868 97.5006 447.868Z" fill="#937BFF"/>
<path fill-rule="evenodd" clip-rule="evenodd" d="M72.5 447.868C71.6725 447.868 71 447.197 71 446.369C71 445.54 71.6725 444.868 72.5 444.868C73.3286 444.868 74 445.54 74 446.369C74 447.197 73.3286 447.868 72.5 447.868Z" fill="#937BFF"/>
<path fill-rule="evenodd" clip-rule="evenodd" d="M47.5 447.868C46.6714 447.868 46 447.197 46 446.369C46 445.54 46.6714 444.868 47.5 444.868C48.3275 444.868 49 445.54 49 446.369C49 447.197 48.3275 447.868 47.5 447.868Z" fill="#937BFF"/>
<path fill-rule="evenodd" clip-rule="evenodd" d="M21.5 447.868C20.6714 447.868 20 447.197 20 446.369C20 445.54 20.6714 444.868 21.5 444.868C22.3286 444.868 23 445.54 23 446.369C23 447.197 22.3286 447.868 21.5 447.868Z" fill="#937BFF"/>
<path fill-rule="evenodd" clip-rule="evenodd" d="M1.5 448C0.671361 448 0 447.33 0 446.501C0 445.672 0.671361 445 1.5 445C2.32864 445 3 445.672 3 446.501C3 447.33 2.32864 448 1.5 448Z" fill="#937BFF"/>
<path fill-rule="evenodd" clip-rule="evenodd" d="M85.5 474.868C84.6714 474.868 84 474.195 84 473.368C84 472.539 84.6714 471.868 85.5 471.868C86.3286 471.868 87 472.539 87 473.368C87 474.195 86.3286 474.868 85.5 474.868Z" fill="#937BFF"/>
<path fill-rule="evenodd" clip-rule="evenodd" d="M60.5 474.868C59.6714 474.868 59 474.195 59 473.368C59 472.539 59.6714 471.868 60.5 471.868C61.3286 471.868 62 472.539 62 473.368C62 474.195 61.3286 474.868 60.5 474.868Z" fill="#937BFF"/>
<path fill-rule="evenodd" clip-rule="evenodd" d="M35.5006 474.868C34.6716 474.868 34 474.195 34 473.368C34 472.539 34.6716 471.868 35.5006 471.868C36.3284 471.868 37 472.539 37 473.368C37 474.195 36.3284 474.868 35.5006 474.868Z" fill="#937BFF"/>
<path fill-rule="evenodd" clip-rule="evenodd" d="M11.5 474.868C10.6725 474.868 10 474.195 10 473.368C10 472.539 10.6725 471.868 11.5 471.868C12.3286 471.868 13 472.539 13 473.368C13 474.195 12.3286 474.868 11.5 474.868Z" fill="#937BFF"/>
<path fill-rule="evenodd" clip-rule="evenodd" d="M97.5006 498.868C96.6716 498.868 96 498.195 96 497.368C96 496.539 96.6716 495.868 97.5006 495.868C98.3284 495.868 99 496.539 99 497.368C99 498.195 98.3284 498.868 97.5006 498.868Z" fill="#937BFF"/>
<path fill-rule="evenodd" clip-rule="evenodd" d="M72.5 498.868C71.6725 498.868 71 498.195 71 497.368C71 496.539 71.6725 495.868 72.5 495.868C73.3286 495.868 74 496.539 74 497.368C74 498.195 73.3286 498.868 72.5 498.868Z" fill="#937BFF"/>
<path fill-rule="evenodd" clip-rule="evenodd" d="M47.5 498.868C46.6714 498.868 46 498.195 46 497.368C46 496.539 46.6714 495.868 47.5 495.868C48.3275 495.868 49 496.539 49 497.368C49 498.195 48.3275 498.868 47.5 498.868Z" fill="#937BFF"/>
<path fill-rule="evenodd" clip-rule="evenodd" d="M21.5 498.868C20.6714 498.868 20 498.195 20 497.368C20 496.539 20.6714 495.868 21.5 495.868C22.3286 495.868 23 496.539 23 497.368C23 498.195 22.3286 498.868 21.5 498.868Z" fill="#937BFF"/>
<path fill-rule="evenodd" clip-rule="evenodd" d="M1.5 499C0.671361 499 0 498.327 0 497.5C0 496.671 0.671361 496 1.5 496C2.32864 496 3 496.671 3 497.5C3 498.327 2.32864 499 1.5 499Z" fill="#937BFF"/>
<path fill-rule="evenodd" clip-rule="evenodd" d="M85.5 525.868C84.6714 525.868 84 525.195 84 524.368C84 523.539 84.6714 522.868 85.5 522.868C86.3286 522.868 87 523.539 87 524.368C87 525.195 86.3286 525.868 85.5 525.868Z" fill="#937BFF"/>
<path fill-rule="evenodd" clip-rule="evenodd" d="M60.5 525.868C59.6714 525.868 59 525.195 59 524.368C59 523.539 59.6714 522.868 60.5 522.868C61.3286 522.868 62 523.539 62 524.368C62 525.195 61.3286 525.868 60.5 525.868Z" fill="#937BFF"/>
<path fill-rule="evenodd" clip-rule="evenodd" d="M35.5006 525.868C34.6716 525.868 34 525.195 34 524.368C34 523.539 34.6716 522.868 35.5006 522.868C36.3284 522.868 37 523.539 37 524.368C37 525.195 36.3284 525.868 35.5006 525.868Z" fill="#937BFF"/>
<path fill-rule="evenodd" clip-rule="evenodd" d="M11.5 525.868C10.6725 525.868 10 525.195 10 524.368C10 523.539 10.6725 522.868 11.5 522.868C12.3286 522.868 13 523.539 13 524.368C13 525.195 12.3286 525.868 11.5 525.868Z" fill="#937BFF"/>
<path fill-rule="evenodd" clip-rule="evenodd" d="M97.5006 549.868C96.6716 549.868 96 549.197 96 548.369C96 547.54 96.6716 546.868 97.5006 546.868C98.3284 546.868 99 547.54 99 548.369C99 549.197 98.3284 549.868 97.5006 549.868Z" fill="#937BFF"/>
<path fill-rule="evenodd" clip-rule="evenodd" d="M72.5 549.868C71.6725 549.868 71 549.197 71 548.369C71 547.54 71.6725 546.868 72.5 546.868C73.3286 546.868 74 547.54 74 548.369C74 549.197 73.3286 549.868 72.5 549.868Z" fill="#937BFF"/>
<path fill-rule="evenodd" clip-rule="evenodd" d="M47.5 549.868C46.6714 549.868 46 549.197 46 548.369C46 547.54 46.6714 546.868 47.5 546.868C48.3275 546.868 49 547.54 49 548.369C49 549.197 48.3275 549.868 47.5 549.868Z" fill="#937BFF"/>
<path fill-rule="evenodd" clip-rule="evenodd" d="M21.5 549.868C20.6714 549.868 20 549.197 20 548.369C20 547.54 20.6714 546.868 21.5 546.868C22.3286 546.868 23 547.54 23 548.369C23 549.197 22.3286 549.868 21.5 549.868Z" fill="#937BFF"/>
<path fill-rule="evenodd" clip-rule="evenodd" d="M1.5 550C0.671361 550 0 549.33 0 548.501C0 547.672 0.671361 547 1.5 547C2.32864 547 3 547.672 3 548.501C3 549.33 2.32864 550 1.5 550Z" fill="#937BFF"/>
<path fill-rule="evenodd" clip-rule="evenodd" d="M85.5 574.868C84.6714 574.868 84 574.197 84 573.369C84 572.54 84.6714 571.868 85.5 571.868C86.3286 571.868 87 572.54 87 573.369C87 574.197 86.3286 574.868 85.5 574.868Z" fill="#937BFF"/>
<path fill-rule="evenodd" clip-rule="evenodd" d="M60.5 574.868C59.6714 574.868 59 574.197 59 573.369C59 572.54 59.6714 571.868 60.5 571.868C61.3286 571.868 62 572.54 62 573.369C62 574.197 61.3286 574.868 60.5 574.868Z" fill="#937BFF"/>
<path fill-rule="evenodd" clip-rule="evenodd" d="M35.5006 574.868C34.6716 574.868 34 574.197 34 573.369C34 572.54 34.6716 571.868 35.5006 571.868C36.3284 571.868 37 572.54 37 573.369C37 574.197 36.3284 574.868 35.5006 574.868Z" fill="#937BFF"/>
<path fill-rule="evenodd" clip-rule="evenodd" d="M11.5 574.868C10.6725 574.868 10 574.197 10 573.369C10 572.54 10.6725 571.868 11.5 571.868C12.3286 571.868 13 572.54 13 573.369C13 574.197 12.3286 574.868 11.5 574.868Z" fill="#937BFF"/>
<path fill-rule="evenodd" clip-rule="evenodd" d="M97.5006 599.868C96.6716 599.868 96 599.195 96 598.368C96 597.539 96.6716 596.868 97.5006 596.868C98.3284 596.868 99 597.539 99 598.368C99 599.195 98.3284 599.868 97.5006 599.868Z" fill="#937BFF"/>
<path fill-rule="evenodd" clip-rule="evenodd" d="M72.5 599.868C71.6725 599.868 71 599.195 71 598.368C71 597.539 71.6725 596.868 72.5 596.868C73.3286 596.868 74 597.539 74 598.368C74 599.195 73.3286 599.868 72.5 599.868Z" fill="#937BFF"/>
<path fill-rule="evenodd" clip-rule="evenodd" d="M47.5 599.868C46.6714 599.868 46 599.195 46 598.368C46 597.539 46.6714 596.868 47.5 596.868C48.3275 596.868 49 597.539 49 598.368C49 599.195 48.3275 599.868 47.5 599.868Z" fill="#937BFF"/>
<path fill-rule="evenodd" clip-rule="evenodd" d="M21.5 599.868C20.6714 599.868 20 599.195 20 598.368C20 597.539 20.6714 596.868 21.5 596.868C22.3286 596.868 23 597.539 23 598.368C23 599.195 22.3286 599.868 21.5 599.868Z" fill="#937BFF"/>
<path fill-rule="evenodd" clip-rule="evenodd" d="M1.5 600C0.671361 600 0 599.327 0 598.5C0 597.671 0.671361 597 1.5 597C2.32864 597 3 597.671 3 598.5C3 599.327 2.32864 600 1.5 600Z" fill="#937BFF"/>
<path fill-rule="evenodd" clip-rule="evenodd" d="M85.5 625.868C84.6714 625.868 84 625.195 84 624.368C84 623.539 84.6714 622.868 85.5 622.868C86.3286 622.868 87 623.539 87 624.368C87 625.195 86.3286 625.868 85.5 625.868Z" fill="#937BFF"/>
<path fill-rule="evenodd" clip-rule="evenodd" d="M60.5 625.868C59.6714 625.868 59 625.195 59 624.368C59 623.539 59.6714 622.868 60.5 622.868C61.3286 622.868 62 623.539 62 624.368C62 625.195 61.3286 625.868 60.5 625.868Z" fill="#937BFF"/>
<path fill-rule="evenodd" clip-rule="evenodd" d="M35.5006 625.868C34.6716 625.868 34 625.195 34 624.368C34 623.539 34.6716 622.868 35.5006 622.868C36.3284 622.868 37 623.539 37 624.368C37 625.195 36.3284 625.868 35.5006 625.868Z" fill="#937BFF"/>
<path fill-rule="evenodd" clip-rule="evenodd" d="M11.5 625.868C10.6725 625.868 10 625.195 10 624.368C10 623.539 10.6725 622.868 11.5 622.868C12.3286 622.868 13 623.539 13 624.368C13 625.195 12.3286 625.868 11.5 625.868Z" fill="#937BFF"/>
<path fill-rule="evenodd" clip-rule="evenodd" d="M97.5006 649.868C96.6716 649.868 96 649.195 96 648.368C96 647.539 96.6716 646.868 97.5006 646.868C98.3284 646.868 99 647.539 99 648.368C99 649.195 98.3284 649.868 97.5006 649.868Z" fill="#937BFF"/>
<path fill-rule="evenodd" clip-rule="evenodd" d="M72.5 649.868C71.6725 649.868 71 649.195 71 648.368C71 647.539 71.6725 646.868 72.5 646.868C73.3286 646.868 74 647.539 74 648.368C74 649.195 73.3286 649.868 72.5 649.868Z" fill="#937BFF"/>
<path fill-rule="evenodd" clip-rule="evenodd" d="M47.5 649.868C46.6714 649.868 46 649.195 46 648.368C46 647.539 46.6714 646.868 47.5 646.868C48.3275 646.868 49 647.539 49 648.368C49 649.195 48.3275 649.868 47.5 649.868Z" fill="#937BFF"/>
<path fill-rule="evenodd" clip-rule="evenodd" d="M21.5 649.868C20.6714 649.868 20 649.195 20 648.368C20 647.539 20.6714 646.868 21.5 646.868C22.3286 646.868 23 647.539 23 648.368C23 649.195 22.3286 649.868 21.5 649.868Z" fill="#937BFF"/>
<path fill-rule="evenodd" clip-rule="evenodd" d="M1.5 650C0.671361 650 0 649.327 0 648.5C0 647.671 0.671361 647 1.5 647C2.32864 647 3 647.671 3 648.5C3 649.327 2.32864 650 1.5 650Z" fill="#937BFF"/>
<path fill-rule="evenodd" clip-rule="evenodd" d="M85.5 674.868C84.6714 674.868 84 674.197 84 673.369C84 672.54 84.6714 671.868 85.5 671.868C86.3286 671.868 87 672.54 87 673.369C87 674.197 86.3286 674.868 85.5 674.868Z" fill="#937BFF"/>
<path fill-rule="evenodd" clip-rule="evenodd" d="M60.5 674.868C59.6714 674.868 59 674.197 59 673.369C59 672.54 59.6714 671.868 60.5 671.868C61.3286 671.868 62 672.54 62 673.369C62 674.197 61.3286 674.868 60.5 674.868Z" fill="#937BFF"/>
<path fill-rule="evenodd" clip-rule="evenodd" d="M35.5006 674.868C34.6716 674.868 34 674.197 34 673.369C34 672.54 34.6716 671.868 35.5006 671.868C36.3284 671.868 37 672.54 37 673.369C37 674.197 36.3284 674.868 35.5006 674.868Z" fill="#937BFF"/>
<path fill-rule="evenodd" clip-rule="evenodd" d="M1.5 675C0.672535 675 0 674.33 0 673.501C0 672.672 0.672535 672 1.5 672C2.32864 672 3 672.672 3 673.501C3 674.33 2.32864 675 1.5 675Z" fill="#937BFF"/>
<path fill-rule="evenodd" clip-rule="evenodd" d="M97.5006 699.868C96.6716 699.868 96 699.197 96 698.369C96 697.54 96.6716 696.868 97.5006 696.868C98.3284 696.868 99 697.54 99 698.369C99 699.197 98.3284 699.868 97.5006 699.868Z" fill="#937BFF"/>
<path fill-rule="evenodd" clip-rule="evenodd" d="M72.5 699.868C71.6725 699.868 71 699.197 71 698.369C71 697.54 71.6725 696.868 72.5 696.868C73.3286 696.868 74 697.54 74 698.369C74 699.197 73.3286 699.868 72.5 699.868Z" fill="#937BFF"/>
<path fill-rule="evenodd" clip-rule="evenodd" d="M47.5 699.868C46.6714 699.868 46 699.197 46 698.369C46 697.54 46.6714 696.868 47.5 696.868C48.3275 696.868 49 697.54 49 698.369C49 699.197 48.3275 699.868 47.5 699.868Z" fill="#937BFF"/>
<path fill-rule="evenodd" clip-rule="evenodd" d="M21.5 699.868C20.6714 699.868 20 699.197 20 698.369C20 697.54 20.6714 696.868 21.5 696.868C22.3286 696.868 23 697.54 23 698.369C23 699.197 22.3286 699.868 21.5 699.868Z" fill="#937BFF"/>
<path fill-rule="evenodd" clip-rule="evenodd" d="M1.5 700C0.671361 700 0 699.33 0 698.501C0 697.672 0.671361 697 1.5 697C2.32864 697 3 697.672 3 698.501C3 699.33 2.32864 700 1.5 700Z" fill="#937BFF"/>
</g>
</svg>
